<?xml version="1.0" encoding="utf-8"?>
<!-- Generator: Adobe Illustrator 22.0.1, SVG Export Plug-In . SVG Version: 6.00 Build 0)  -->
<svg version="1.1" id="Layer_1" xmlns="http://www.w3.org/2000/svg" xmlns:xlink="http://www.w3.org/1999/xlink" x="0px" y="0px"
	 viewBox="0 0 379.3 262.6" style="enable-background:new 0 0 379.3 262.6;" xml:space="preserve">
<style type="text/css">
	.st0{fill:#211F5E;fill-opacity:0.94;}
	.st1{fill-opacity:0;stroke:#FFFFFF;stroke-width:2.5;}
</style>
<g>
	<g>
		<g>
			<path id="b3zrMwKsZm" class="st0" d="M268.2,185.2h0.7h0.7h0.7h0.7h0.7l0.7,0.1l0.7,0.1l0.7,0.1l0.7,0.1l0.7,0.1h0.3h0.2l0.5,0.1
				l0.5,0.1l0.5,0.1l0.5,0.1l0.5,0.1l0.5,0.1l0.5,0.1l0.5,0.1l0.5,0.1l0.5,0.1l0.5,0.1l0.5,0.1l0.5,0.2l0.5,0.2l0.5,0.2l0.5,0.2
				l0.5,0.2l0.5,0.2l0.5,0.2l0.5,0.2l0.5,0.2l0.5,0.2l0.5,0.2l0.5,0.2l0.5,0.2l0.5,0.2l0.5,0.2l0.5,0.2l0.5,0.2l0.5,0.2l0.5,0.2
				l0.5,0.2l0.5,0.2l0.5,0.2l0.5,0.2l0,0l0.6,0.3l0.6,0.3l0.6,0.4l0.6,0.4l0.6,0.4l0.6,0.4l0.6,0.4l0.6,0.4l0.6,0.4l0.6,0.4l0.5,0.4
				l0.5,0.4l0.5,0.4l0.5,0.4l0.5,0.4l0.5,0.5l0.5,0.5l0.5,0.5l0.5,0.5l0.5,0.5l0.5,0.5l0.5,0.5l0.5,0.5l0.5,0.5l0.5,0.5l0.4,0.5
				l0.4,0.5l0.4,0.5l0.4,0.5l0.4,0.5l0.4,0.6l0.4,0.6l0.4,0.6l0.4,0.6l0.4,0.6l0.4,0.6l0.4,0.6l0.4,0.6l0.3,0.6l0.3,0.6l0.8,1.5
				l10.3,16.7l0.4,0.6l0.6,0.8l0.6,0.8l0.6,0.8l0.6,0.8l0.6,0.8l0.6,0.8l0.6,0.7l0.6,0.7l0.7,0.7l0.7,0.7l0.7,0.7l0.7,0.7l0.7,0.7
				l0.7,0.7l0.7,0.7l0.7,0.7l0.7,0.6l0.7,0.6l0.8,0.6l0.8,0.6l0.8,0.6l0.8,0.6l0.8,0.6l0.8,0.6l0.8,0.6l0.8,0.5l0.8,0.5l0.8,0.5
				l0.8,0.5l0.8,0.5l0.9,0.5l0.9,0.5l0.9,0.5l0.9,0.4l0.9,0.4l0.9,0.4l0.9,0.4l0.9,0.4l0.9,0.4l0.9,0.4l11.1,4.3l-13.9,1.5l-0.6,0.1
				h-0.6h-0.6h-0.6h-0.6H348h-0.6h-0.6h-0.6h-0.6H345h-0.6h-0.6h-0.6h-0.6H342h-0.6h-0.6h-0.6h-0.6H339h-0.6h-0.6h-0.6h-0.6
				l-0.6-0.1l-0.6-0.1l-0.6-0.1l-0.6-0.1l-0.5-0.1l-0.6-0.1l-0.6-0.1l-0.6-0.1l-0.6-0.1l-0.5-0.1l-0.6-0.1l-0.4-0.1l-0.3-0.1
				l-0.5-0.1l-0.5-0.1l-0.5-0.1l-0.5-0.1l-0.5-0.1l-0.5-0.1l-0.5-0.1l-0.5-0.2l-0.5-0.2l-0.5-0.2l-0.5-0.2l-0.5-0.2l-0.5-0.2
				l-0.5-0.2l-0.5-0.2l-0.5-0.2l-0.4-0.2l-0.5-0.2l-0.4-0.2l-0.4-0.2l-0.4-0.2l-0.4-0.2l-0.4-0.2l-0.4-0.2l-0.4-0.2l-0.4-0.2
				l-0.4-0.2l-0.4-0.2l-0.4-0.2l-0.4-0.2l-0.4-0.2l-0.4-0.2l-0.4-0.2l-0.4-0.2l-0.4-0.3l-0.4-0.3l-0.6-0.4l-0.6-0.4l-0.6-0.4
				l-0.6-0.4l-0.5-0.4l-0.5-0.4l-0.5-0.4l-0.5-0.4l-0.5-0.4l-0.5-0.4l-0.5-0.4l-0.5-0.4l-0.5-0.4l-0.5-0.4l-0.5-0.5l-0.5-0.5
				l-0.5-0.5l-0.5-0.5l-0.5-0.5l-0.5-0.5l-0.4-0.5l-0.4-0.5l-0.4-0.5l-0.4-0.5l-0.4-0.5l-0.4-0.5l-0.4-0.5l-0.4-0.5l-0.4-0.5
				l-0.4-0.5l-0.4-0.6l-0.4-0.6l-0.4-0.6l-0.4-0.6l-0.3-0.6l-0.3-0.6l-0.3-0.6l-0.3-0.6l-0.3-0.6l-0.3-0.6l-3.5-6.8l-8.3-12.5
				l-0.1-0.1l-0.1-0.1l-0.1-0.1l-0.1-0.1l-0.1-0.1l-0.1-0.1l-0.1-0.1l-0.1-0.1l-0.1-0.1l-0.1-0.1l-0.1-0.1l-0.1-0.1l-0.1-0.1
				l-0.1-0.1l-0.1-0.1l-0.1-0.1l-0.1-0.1l-0.1-0.1l-0.1-0.1l-0.1-0.1l-0.1-0.1l-0.1-0.1l-0.1-0.1l-0.1-0.1l-0.1-0.1l-0.1-0.1
				l-0.1-0.1l-0.1-0.1l-0.1-0.1l-0.1-0.1l-0.1-0.1l-0.1-0.1l-0.1-0.1l-0.1-0.1l-0.1-0.1l-0.1-0.1l-0.1-0.1l-0.1-0.1l-0.1-0.1
				l-0.1-0.1l-0.6-0.7l-0.6-0.7l-0.6-0.6l-0.6-0.6l-0.7-0.6l-0.7-0.6l-0.7-0.6l-0.7-0.6l-0.7-0.6l-0.7-0.6l-0.7-0.6l-0.7-0.6
				l-0.7-0.5l-0.7-0.5l-0.7-0.5l-0.7-0.5l-0.7-0.5l-0.8-0.5l-0.8-0.5l-0.8-0.5l-0.8-0.5l-0.8-0.4l-0.8-0.4l-0.8-0.4l-0.8-0.4
				l-0.8-0.4l-0.8-0.4l-0.8-0.4l-0.8-0.4l-0.8-0.3l-0.8-0.3l-0.8-0.3l-0.9-0.3l-0.9-0.3l-0.9-0.3l-0.9-0.3l-0.9-0.3l-0.9-0.2
				l-0.9-0.2l-0.9-0.2l-5.2-1.2l4.8-1l0.7-0.1l0.7-0.1l0.7-0.1l0.7-0.1l0.7-0.1l0.7-0.1l0.7-0.1l0.7-0.1l0.7-0.1l0.7-0.1l0.7-0.1
				l0.7-0.1l0.7-0.1l0.7-0.1l0.7-0.1h0.7h0.7h0.7h0.7h0.7h0.7h0.7h0.7h0.7h0.7l0,0L268.2,185.2z M330.6,258.3h0.1h0.2l0.5,0.1
				l0.5,0.1l0.5,0.1L329,258l0.5,0.1l0.5,0.1l0,0L330.6,258.3z M42.3,232.9l1.1,0.5l1,0.6l0.9,0.7l0.8,0.8l0.7,0.9l0.6,1l0.5,1.1
				l0.4,1.1l0.3,1.2l0.1,1.2v1.3l-0.1,1.7l-0.1,1.1l-0.2,1.1l-0.3,1l-0.4,1l-0.5,0.9l-0.6,0.8l-0.7,0.8l-0.8,0.7l-0.8,0.6l-0.9,0.5
				l-0.9,0.5l-1,0.4l-1,0.3l-1.1,0.2h-1.1l-1.2-0.1l-1.2-0.2l-1.1-0.3l-1.1-0.4l-1-0.5l-1-0.6l-0.9-0.7l-0.8-0.8l-0.7-0.9l-0.6-1
				l-0.5-1l-0.4-1.1l-0.3-1.1L27,245l-0.1-1.2v-1.6l0.1-1l0.1-1l0.2-1l0.3-0.9l0.4-0.9l0.5-0.8l0.6-0.8l0.6-0.7l0.7-0.6l0.8-0.6
				l0.8-0.5l0.9-0.4l0.9-0.3l1-0.2l1-0.1l1.5-0.1h1.3l1.2,0.1l1.2,0.3l0,0L42.3,232.9z M50.5,205.9h0.7h0.7h0.7l0.7,0.1l0.7,0.1
				l0.7,0.1l0.7,0.1l0.7,0.1l0.7,0.1l0.7,0.1l0.7,0.1l0.7,0.1l0.7,0.2l0.7,0.2l0.7,0.2l0.6,0.2l0.7,0.2l0.6,0.2l0.6,0.2l0.6,0.2
				l0.6,0.2l0.6,0.2l0.6,0.2l0.6,0.3l0.6,0.3l0.6,0.3l0.6,0.3l0.6,0.3l0.6,0.3l0.6,0.3l0.6,0.3l0.6,0.3l1.5,0.8l17.6,8.6l0.7,0.3
				l0.9,0.4l0.9,0.4l0.9,0.4l0.9,0.3l0.9,0.3l0.9,0.3l0.9,0.3l0.9,0.3l0.9,0.3l0.9,0.2l1,0.2l0.9,0.2l1,0.2l1,0.2l1,0.2l1,0.2l1,0.1
				l1,0.1l1,0.1l1,0.1l1,0.1l1,0.1l1,0.1h1h1h1h1h1h1h1h1l1-0.1l1-0.1l1-0.1l1-0.1l1-0.1l1-0.1l1-0.2l1-0.2l1-0.2l11.7-2.3l-11,8.7
				l-0.4,0.3l-0.4,0.3l-0.4,0.3l-0.5,0.3l-0.4,0.3l-0.5,0.3l-0.5,0.3l-0.5,0.3l-0.5,0.3l-0.5,0.3l-0.5,0.3l-0.5,0.3l-0.5,0.3
				l-0.5,0.3l-0.5,0.3l-0.5,0.3l-0.5,0.3l-0.5,0.3l-0.5,0.3l-0.5,0.3l-0.5,0.3l-0.5,0.3l-0.5,0.3l-0.5,0.3l-0.5,0.2l-0.5,0.2
				l-0.5,0.2L117,240l-0.5,0.2l-0.5,0.2l-0.5,0.2l-0.5,0.2l-0.5,0.2l-0.5,0.2l-0.5,0.2l-0.5,0.2l-0.4,0.1l-0.3,0.1l-0.5,0.1
				l-0.5,0.1l-0.5,0.1l-0.5,0.1l-0.5,0.1l-0.5,0.1L109,243l-0.5,0.1l-0.5,0.1l-0.5,0.1l-0.5,0.1l-0.5,0.1l-0.5,0.1l-0.5,0.1
				l-0.5,0.1l-0.5,0.1L104,244l-0.5,0.1l-0.5,0.1l-0.5,0.1l-0.5,0.1l-0.5,0.1l-0.5,0.1h-0.5H100h-0.5H99h-0.5H98h-0.5H97h-0.5H96
				h-0.5H95h-0.5h-0.7h-0.7h-0.7h-0.7H91h-0.7l-0.7-0.1l-0.7-0.1l-0.6-0.1l-0.7-0.1l-0.7-0.1l-0.6-0.1l-0.6-0.1l-0.6-0.1l-0.6-0.1
				l-0.6-0.1l-0.6-0.1l-0.6-0.1l-0.6-0.2l-0.6-0.2l-0.6-0.2l-0.6-0.2l-0.6-0.2l-0.6-0.2l-0.6-0.2l-0.6-0.2l-0.6-0.2l-0.6-0.2
				l-0.6-0.3l-0.6-0.2l-0.6-0.3l-0.6-0.3l-0.6-0.3l-0.6-0.3l-0.6-0.3l-0.6-0.3l-0.6-0.3l-0.6-0.3l-0.6-0.3l-0.6-0.3L63,234
				l-13.7-6.2l-0.2-0.1l-0.2-0.1l-0.2-0.1l-0.2-0.1l-0.2-0.1l-0.2-0.1l-0.2-0.1l-0.2-0.1l-0.2-0.1l-0.2-0.1l-0.2-0.1l-0.2-0.1
				l-0.2-0.1l-0.2-0.1l-0.2-0.1l-0.2-0.1l-0.2-0.1l-0.2-0.1l-0.2-0.1l-0.2-0.1l-0.2-0.1l-0.2-0.1l-0.2-0.1l-0.2-0.1l-0.2-0.1h-0.2
				l-0.2-0.1l-0.2-0.1h-0.2l-0.2-0.1h-0.2h-0.2l-0.2-0.1h-0.2h-0.2h-0.2h-0.2h-0.2h-0.2h-0.2L42,225l-0.9-0.2l-0.9-0.2l-0.9-0.2
				l-0.9-0.2l-0.9-0.2l-0.9-0.2l-0.9-0.1l-0.9-0.1l-0.9-0.1l-0.9-0.1l-0.9-0.1l-0.9-0.1l-0.9-0.1h-0.9h-0.9h-0.9h-0.9h-0.9h-0.9H24
				h-0.9l-0.9,0.1l-0.9,0.1l-0.9,0.1l-0.9,0.1l-0.9,0.1l-0.9,0.1l-0.9,0.1l-0.9,0.2l-0.9,0.2l-0.9,0.2l-0.9,0.2l-0.9,0.2l-0.9,0.2
				l-0.9,0.2l-0.9,0.3L9,225.8l-0.9,0.3l-0.9,0.3l-5.1,1.7l3.5-3.4l0.5-0.5l0.5-0.5l0.5-0.5l0.5-0.5l0.5-0.5l0.5-0.5l0.6-0.5
				l0.6-0.5l0.6-0.5l0.6-0.5l0.6-0.5l0.6-0.4l0.6-0.4l0.6-0.4l0.6-0.4l0.6-0.4l0.6-0.4l0.6-0.4l0.6-0.4l0.6-0.4l0.6-0.4l0.6-0.4
				l0.6-0.4l0.6-0.4l0.6-0.4l0.6-0.4l0.6-0.4l0.6-0.4l0.6-0.3l0.6-0.3l0.6-0.3l0.6-0.3l0.6-0.3l0.6-0.3l0.6-0.3l1-0.3l0.3-0.1
				l0.2-0.1l0.5-0.2l0.5-0.2l0.5-0.2l0.5-0.2l0.5-0.2l0.5-0.2l0.5-0.2l0.5-0.1l0.5-0.1l0.5-0.1L33,208l0.5-0.1l0.5-0.1l0.5-0.1
				l0.5-0.1l0.5-0.1l0.5-0.1l0.5-0.1l0.5-0.1l0.5-0.1L38,207l0.5-0.1l0.5-0.1l0.5-0.1l0.5-0.1l0.5-0.1l0.5-0.1l0.5-0.1l0.5-0.1
				l0.5-0.1L43,206h0.5H44h0.5H45l0,0h0.7h0.7h0.7h0.7h0.7h0.7h0.7l0,0L50.5,205.9z M111.8,242.2l0.5-0.2h0.1l0.2-0.1l0.5-0.1
				l0.5-0.2l0.5-0.2l-3.3,1.2l0.5-0.2l0,0L111.8,242.2z M348.1,213.6l1.1,0.5l1,0.6l0.9,0.7l0.8,0.8l0.7,0.9l0.6,1l0.5,1.1l0.4,1.1
				l0.3,1.2l0.1,1.2v1.3l-0.1,1.7l-0.1,1.1l-0.2,1.1l-0.3,1l-0.4,1l-0.5,0.9l-0.6,0.8l-0.7,0.8l-0.8,0.7l-0.8,0.6l-0.9,0.5l-0.9,0.5
				l-1,0.4l-1,0.3l-1.1,0.2H344l-1.2-0.1l-1.2-0.2l-1.1-0.3l-1.1-0.4l-1-0.5l-1-0.6l-0.9-0.7l-0.8-0.8l-0.7-0.9l-0.6-1l-0.5-1
				l-0.4-1.1l-0.3-1.1l-0.2-1.2l-0.1-1.2v-1.6l0.1-1l0.1-1l0.2-1l0.3-0.9l0.4-0.9l0.5-0.8l0.6-0.8l0.6-0.7l0.7-0.6l0.8-0.6l0.8-0.5
				l0.9-0.4l0.9-0.3l1-0.2l1-0.1l1.5-0.1h1.3l1.2,0.1l1.2,0.3l0,0L348.1,213.6z M27.7,209.6l-0.4,0.2l-0.2,0.1l-0.5,0.2l-0.5,0.2
				l-0.5,0.2l-0.5,0.2l4.5-1.9l-0.7,0.3l-0.7,0.3l0,0L27.7,209.6z M34.3,123.4H35h0.7h0.7h0.7l0.7,0.1l0.7,0.1l0.7,0.1l0.7,0.1
				l0.7,0.1h0.3h0.2l0.5,0.1l0.5,0.1l0.5,0.1l0.5,0.1l0.5,0.1l0.5,0.1l0.5,0.1l0.5,0.1l0.5,0.1l0.5,0.1l0.5,0.1l0.5,0.1l0.5,0.1
				l0.5,0.1l0.5,0.2l0.5,0.2l0.5,0.2l0.5,0.2l0.5,0.2l0.5,0.2l0.5,0.2l0.5,0.2l0.5,0.2l0.5,0.2l0.5,0.2l0.5,0.2l0.5,0.2l0.5,0.2
				l0.5,0.2l0.5,0.2l0.5,0.2l0.5,0.2l0.5,0.2l0.5,0.2l0.5,0.2l0,0l0.6,0.3l0.6,0.3l0.6,0.3l0.6,0.3l0.6,0.4l0.6,0.4l0.6,0.4l0.6,0.4
				l0.6,0.4l0.6,0.4l0.6,0.4l0.6,0.4l0.5,0.4l0.5,0.4l0.5,0.4l0.5,0.4l0.5,0.5l0.5,0.5l0.5,0.5l0.5,0.5l0.5,0.5l0.5,0.5l0.5,0.5
				l0.5,0.5l0.5,0.5l0.5,0.5l0.4,0.5l0.4,0.5L74,142l0.4,0.5l0.4,0.6l0.4,0.5l0.4,0.6l0.4,0.6l0.4,0.6l0.4,0.6l0.4,0.6l0.4,0.6
				l0.4,0.6l0.3,0.6l0.8,1.5l9.9,16.8l0.4,0.6l0.6,0.8l0.6,0.8l0.6,0.8l0.6,0.8l0.6,0.8L93,172l0.6,0.7l0.6,0.7l0.7,0.7l0.7,0.7
				l0.7,0.7l0.7,0.7l0.7,0.7l0.7,0.7l0.7,0.7l0.7,0.6l0.7,0.6l0.7,0.6l0.8,0.6l0.8,0.6l0.8,0.6l0.8,0.6l0.8,0.6l0.8,0.6l0.8,0.5
				l0.8,0.5l0.8,0.5l0.8,0.5l0.8,0.5l0.8,0.5l0.9,0.5l0.9,0.5l0.9,0.4l0.9,0.4l0.9,0.4l0.9,0.4l0.9,0.4l0.9,0.4l0.9,0.4l0.9,0.4
				l11.2,4.2l-13.9,1.6l-0.6,0.1l-0.6,0.1h-0.6h-0.6h-0.6h-0.6h-0.6h-0.6h-0.6h-0.6h-0.6h-0.6h-0.6h-0.6h-0.6h-0.6h-0.6h-0.6h-0.6
				h-0.6h-0.6h-0.6h-0.6h-0.6h-0.6h-0.6l-0.6-0.1l-0.6-0.1l-0.6-0.1l-0.6-0.1l-0.6-0.1l-0.6-0.1l-0.5-0.1l-0.6-0.1L98,196l-0.6-0.1
				l-0.4-0.1l-0.3-0.1l-0.5-0.1l-0.5-0.1l-0.5-0.1l-0.5-0.1l-0.5-0.1l-0.5-0.1l-0.5-0.1l-0.5-0.1l-0.5-0.1l-0.5-0.2l-0.5-0.2
				l-0.5-0.2l-0.5-0.2l-0.5-0.2l-0.5-0.2l-0.5-0.2l-0.5-0.2l-0.4-0.2l-0.5-0.2l-0.4-0.2l-0.4-0.2l-0.4-0.2l-0.4-0.2l-0.4-0.2
				l-0.4-0.2l-0.4-0.2l-0.4-0.2L84,191l-0.4-0.2l-0.4-0.2l-0.4-0.2l-0.4-0.2L82,190l-0.4-0.2l-0.4-0.2l-0.4-0.3l-0.6-0.3l-0.6-0.4
				L79,188l-0.6-0.4l-0.5-0.4l-0.5-0.4l-0.5-0.4l-0.5-0.4l-0.5-0.4l-0.5-0.4l-0.5-0.4l-0.5-0.4l-0.5-0.4l-0.5-0.4l-0.5-0.4l-0.5-0.5
				l-0.5-0.5l-0.5-0.5l-0.5-0.5l-0.5-0.5l-0.5-0.5l-0.4-0.5l-0.4-0.5l-0.4-0.5l-0.4-0.5l-0.4-0.5l-0.4-0.5l-0.4-0.5l-0.4-0.5
				l-0.4-0.5l-0.4-0.5l-0.4-0.5l-0.4-0.6l-0.4-0.6l-0.4-0.6l-0.3-0.6l-0.3-0.6l-0.3-0.6l-0.3-0.6l-0.3-0.6l-3.5-6.7l-8.4-12.4
				l-0.1-0.1l-0.1-0.1l-0.1-0.1l-0.1-0.1l-0.1-0.1l-0.1-0.1l-0.1-0.1l-0.1-0.1l-0.1-0.1l-0.1-0.1l-0.1-0.1l-0.1-0.1l-0.1-0.1
				l-0.1-0.1l-0.1-0.1l-0.1-0.1l-0.1-0.1l-0.1-0.1l-0.1-0.1l-0.1-0.1l-0.1-0.1l-0.1-0.1l-0.1-0.1l-0.1-0.1l-0.1-0.1l-0.1-0.1L48,147
				l-0.1-0.1l-0.1-0.1l-0.1-0.1l-0.1-0.1l-0.1-0.1l-0.1-0.1l-0.1-0.1l-0.1-0.1l-0.1-0.1L47,146l-0.1-0.1l-0.1-0.1l-0.1-0.1l-0.6-0.7
				l-0.6-0.6l-0.6-0.6l-0.6-0.6l-0.7-0.6l-0.7-0.6l-0.7-0.6l-0.7-0.6l-0.7-0.6l-0.7-0.6l-0.7-0.6l-0.7-0.5L38,138l-0.7-0.5l-0.7-0.5
				l-0.8-0.5L35,136l-0.8-0.5l-0.8-0.5l-0.8-0.5l-0.8-0.4l-0.8-0.4l-0.8-0.4l-0.8-0.4l-0.8-0.4l-0.8-0.4l-0.8-0.4l-0.8-0.4l-0.8-0.3
				l-0.8-0.3l-0.8-0.3l-0.9-0.3l-0.9-0.3l-0.9-0.3l-0.9-0.3l-0.9-0.3l-0.9-0.2l-0.9-0.2l-0.9-0.2l-0.9-0.2l-5.2-1.2l4.8-1.1l0.7-0.2
				l0.7-0.1l0.7-0.1l0.7-0.1l0.7-0.1l0.7-0.1l0.7-0.1l0.7-0.1l0.7-0.1l0.7-0.1l0.7-0.1l0.7-0.1l0.7-0.1l0.7-0.1l0.7-0.1l0.7-0.1h0.7
				h0.7h0.7h0.7H30h0.7h0.7h0.7h0.7h0.7l0,0L34.3,123.4z M96.9,195.8L96.9,195.8h0.3l0.5,0.1l0.5,0.1l0.5,0.1l-3.4-0.7l0.5,0.1
				l0.5,0.1l0,0L96.9,195.8z M276.9,186l-0.7-0.1h-0.4h-0.3l-0.5-0.1l-0.5-0.1l-0.5-0.1l-0.5-0.1l4.8,0.8l-0.7-0.1l0,0L276.9,186z
				 M284.7,137h0.7h0.7l0.7,0.1l0.7,0.1l0.7,0.1l0.7,0.1l0.7,0.1l0.7,0.1l0.7,0.1l0.7,0.1l0.7,0.1l0.7,0.1l0.7,0.2l0.7,0.2l0.7,0.2
				l0.6,0.2l0.7,0.2l0.6,0.2l0.6,0.2l0.6,0.2l0.6,0.2l0.6,0.2l0.6,0.2l0.6,0.3l0.6,0.3l0.6,0.3l0.6,0.3l0.6,0.3l0.6,0.3l0.6,0.3
				l0.6,0.3l0.6,0.3l1.5,0.8l17.6,8.6l0.7,0.3l0.9,0.4l0.9,0.4l0.9,0.3l0.9,0.3l0.9,0.3l0.9,0.3l0.9,0.3l0.9,0.3l0.9,0.3l0.9,0.2
				l1,0.2l0.9,0.2l1,0.2l1,0.2l1,0.2l1,0.2l1,0.1l1,0.1l1,0.1l1,0.1l1,0.1l1,0.1l1,0.1h1h1h1h1h1h1h1h1l1-0.1l1-0.1l1-0.1l1-0.1
				l1-0.1l1-0.1l1-0.2l1-0.2l1-0.2l11.7-2.3l-11,8.7l-0.4,0.3l-0.4,0.3l-0.4,0.3l-0.5,0.3l-0.4,0.3l-0.5,0.3l-0.5,0.3l-0.5,0.3
				l-0.5,0.3l-0.5,0.3l-0.5,0.3l-0.5,0.3l-0.5,0.3l-0.5,0.3l-0.5,0.3l-0.5,0.3l-0.5,0.3l-0.5,0.3l-0.5,0.3l-0.5,0.3l-0.5,0.3
				l-0.5,0.3l-0.5,0.3l-0.5,0.2l-0.5,0.3l-0.5,0.2l-0.5,0.2l-0.5,0.2l-0.5,0.2l-0.5,0.2l-0.5,0.2l-0.5,0.2l-0.5,0.2l-0.5,0.2
				l-0.5,0.2l-0.5,0.2l-0.4,0.1l-0.3,0.1l-0.5,0.1l-0.5,0.1l-0.5,0.1l-0.5,0.1l-0.5,0.1l-0.5,0.1l-0.5,0.1l-0.5,0.1l-0.5,0.1
				l-0.5,0.1l-0.5,0.1l-0.5,0.1l-0.5,0.1l-0.5,0.1l-0.5,0.1l-0.5,0.1l-0.5,0.1l-0.5,0.1l-0.5,0.1l-0.5,0.1l-0.5,0.1l-0.5,0.1
				l-0.5,0.1h-0.5h-0.5h-0.5h-0.5h-0.5h-0.5h-0.5h-0.5h-0.5h-0.5h-0.5h-0.5h-0.5h-0.7h-0.7h-0.7h-0.7h-0.7h-0.7l-0.7-0.1l-0.7-0.1
				l-0.6-0.1l-0.7-0.1l-0.7-0.1l-0.6-0.1l-0.6-0.1l-0.6-0.1l-0.6-0.1l-0.6-0.1l-0.6-0.1l-0.6-0.1l-0.6-0.2l-0.6-0.2l-0.6-0.2
				l-0.6-0.2l-0.6-0.2l-0.6-0.2L313,173l-0.6-0.2l-0.6-0.2l-0.6-0.2l-0.6-0.2l-0.6-0.3l-0.6-0.3l-0.6-0.3l-0.6-0.3l-0.6-0.3
				l-0.6-0.3l-0.6-0.3l-0.6-0.3l-0.6-0.3l-0.6-0.3l-0.6-0.3l-6.5-3.9l-13.7-6.2l-0.2-0.1l-0.2-0.1l-0.2-0.1l-0.2-0.1l-0.2-0.1
				l-0.2-0.1l-0.2-0.1l-0.2-0.1l-0.2-0.1l-0.2-0.1l-0.2-0.1l-0.2-0.1l-0.2-0.1l-0.2-0.1l-0.2-0.1l-0.2-0.1l-0.2-0.1l-0.2-0.1
				l-0.2-0.1l-0.2-0.1l-0.2-0.1l-0.2-0.1l-0.2-0.1l-0.2-0.1l-0.2-0.1l-0.2-0.1h-0.2l-0.2-0.1H278l-0.2-0.1h-0.2h-0.2l-0.2-0.1H277
				h-0.2h-0.2h-0.2h-0.2H276h-0.2l-0.9-0.2l-0.9-0.2l-0.9-0.2l-0.9-0.2l-0.9-0.2l-0.9-0.2l-0.9-0.2l-0.9-0.1l-0.9-0.1l-0.9-0.1
				l-0.9-0.1L265,154l-0.9-0.1l-0.9-0.1h-0.9h-0.9h-0.9h-0.9h-0.9h-0.9h-0.9H256l-0.9,0.1l-0.9,0.1l-0.9,0.1l-0.9,0.1l-0.9,0.1
				l-0.9,0.1l-0.9,0.1l-0.9,0.2l-0.9,0.2l-0.9,0.2l-0.9,0.2l-0.9,0.2l-0.9,0.2l-0.9,0.2l-0.9,0.2l-0.9,0.3l-0.9,0.3l-0.9,0.3
				l-5.1,1.7l3.5-3.4l0.5-0.5l0.5-0.5l0.5-0.5l0.5-0.5l0.5-0.5l0.5-0.5l0.6-0.5l0.6-0.5l0.6-0.5l0.6-0.5l0.6-0.5l0.6-0.5l0.6-0.4
				l0.6-0.4l0.6-0.4l0.6-0.4l0.6-0.4l0.6-0.4l0.6-0.4l0.6-0.4l0.6-0.4l0.6-0.4l0.6-0.4l0.6-0.4l0.6-0.4l0.6-0.4l0.6-0.4l0.6-0.4
				l0.6-0.3l0.6-0.4l0.6-0.3l0.6-0.3l0.6-0.3l0.6-0.3l0.6-0.3l0.7-0.3l0.3-0.1l0.2-0.1l0.5-0.2l0.5-0.2l0.5-0.2l0.5-0.2l0.5-0.2
				l0.5-0.2l0.5-0.2l0.5-0.1l0.5-0.1l0.5-0.1l0.5-0.1l0.5-0.1l0.5-0.1l0.5-0.1l0.5-0.1l0.5-0.1l0.5-0.1l0.5-0.1l0.5-0.1l0.5-0.1
				l0.5-0.1l0.5-0.1l0.5-0.1l0.5-0.1l0.5-0.1l0.5-0.1l0.5-0.1l0.5-0.1l0.5-0.1h0.5l0.5-0.1h0.5h0.5h0.5h0.5h0.1h0.7h0.7h0.7h0.7h0.7
				h0.7h0.7l0,0L284.7,137z M346.1,173.3l0.5-0.2l0.1-0.1l0.2-0.1l0.5-0.1l0.5-0.2l0.5-0.2l-3.3,1.2l0.5-0.2l0,0L346.1,173.3z
				 M38.4,147.6l1.1,0.5l1,0.6l0.9,0.7l0.8,0.8l0.7,0.9l0.6,1l0.5,1.1l0.4,1.1l0.3,1.2l0.1,1.2v1.3l-0.1,1.7l-0.1,1.1l-0.2,1.1
				l-0.3,1l-0.4,1l-0.5,0.9l-0.6,0.8l-0.7,0.8l-0.8,0.7l-0.8,0.6l-0.9,0.5l-0.9,0.5l-1,0.4l-1,0.3l-1.1,0.2h-1.1l-1.2-0.1l-1.2-0.2
				l-1.1-0.3l-1.1-0.4l-1-0.5l-1-0.6l-0.9-0.7L26,166l-0.7-0.9l-0.6-1l-0.5-1l-0.4-1.1l-0.3-1.1l-0.2-1.2l-0.1-1.2v-1.6l0.1-1l0.1-1
				l0.2-1l0.3-0.9l0.4-0.9l0.5-0.8l0.6-0.8l0.6-0.7l0.7-0.6l0.8-0.6l0.8-0.5l0.9-0.4l0.9-0.3l1-0.2l1-0.1l1.5-0.1h1.3l1.2,0.1
				l1.2,0.3l0,0L38.4,147.6z M71.6,44.9l0.7,0.2l0.7,0.2l0.7,0.2l0.7,0.3l0.7,0.3l0.7,0.3l0.7,0.3l0.7,0.3l0.7,0.3l0.7,0.3l0.7,0.3
				l0.7,0.3l0.7,0.3l0.6,0.3l0.6,0.3l0.6,0.3l0.6,0.3l0.6,0.3l0.6,0.3l0.6,0.4l0.6,0.4l0.6,0.4l0.6,0.4l0.6,0.4l0.6,0.4l0.6,0.4
				l0.6,0.4l0.6,0.4l0.6,0.4l0.6,0.4l0.6,0.4l0.6,0.4l0.6,0.4l0.6,0.4l0.3,0.2l0.2,0.2l0.4,0.3l0.4,0.3l0.4,0.3l0.4,0.4l0.4,0.3
				l0.4,0.4l0.4,0.4l0.4,0.4l0.4,0.4l0.4,0.4l0.4,0.4l0.3,0.4l0.3,0.4l0.3,0.4l0.3,0.4l0.3,0.4l0.3,0.4l0.3,0.4l0.3,0.4l0.3,0.4
				l0.3,0.4l0.3,0.4l0.3,0.4l0.3,0.4l0.3,0.4l0.3,0.4l0.3,0.4l0.3,0.4l0.3,0.4l0.3,0.4l0.3,0.4l0.3,0.4l0.3,0.4l0.3,0.4l0.3,0.4l0,0
				l0.4,0.6l0.3,0.6l0.3,0.6l0.3,0.6l0.3,0.6l0.3,0.6l0.3,0.6l0.3,0.6l0.3,0.6l0.3,0.6l0.3,0.6l0.3,0.6l0.3,0.6l0.2,0.6l0.2,0.6
				l0.2,0.6l0.2,0.6l0.2,0.6l0.2,0.7l0.2,0.6l0.2,0.7l0.2,0.7l0.2,0.7l0.2,0.7l0.1,0.7l0.1,0.7l0.1,0.7L112,88l0.1,0.7l0.1,0.7
				l0.1,0.7l0.1,0.7l0.1,0.7l0.1,0.7v0.7v0.7v0.7V95v0.7v0.7v1.7l0.7,19.6l0.1,0.7l0.1,1l0.1,1l0.1,1l0.1,1l0.2,1l0.2,1l0.2,1l0.2,1
				l0.2,1l0.2,1l0.2,1l0.3,0.9l0.3,0.9l0.3,0.9l0.3,0.9l0.3,0.9l0.3,0.9l0.3,0.9l0.3,0.9l0.4,0.9l0.4,0.9l0.4,0.9l0.4,0.9l0.4,0.9
				l0.4,0.9l0.4,0.9l0.5,0.9l0.5,0.9l0.5,0.8l0.5,0.8l0.5,0.8l0.5,0.8l0.5,0.8l0.6,0.8l0.6,0.8l0.6,0.8l0.6,0.8l0.6,0.8l0.6,0.8
				l0.6,0.8l7.6,9.2l-12.8-5.6l-0.5-0.2l-0.5-0.2l-0.5-0.2l-0.5-0.2l-0.5-0.2l-0.5-0.2l-0.5-0.2l-0.5-0.3l-0.5-0.3l-0.5-0.3
				l-0.5-0.3l-0.5-0.3l-0.5-0.3l-0.5-0.3l-0.5-0.3l-0.5-0.3l-0.5-0.3l-0.5-0.3l-0.5-0.3l-0.5-0.3l-0.5-0.3l-0.5-0.3l-0.5-0.3
				l-0.5-0.3l-0.5-0.3l-0.5-0.3l-0.4-0.3l-0.5-0.3l-0.4-0.3l-0.4-0.3l-0.4-0.3l-0.4-0.3l-0.4-0.3l-0.4-0.4l-0.4-0.4l-0.4-0.4
				l-0.3-0.3l-0.2-0.2l-0.3-0.3l-0.3-0.3l-0.3-0.3l-0.3-0.3l-0.3-0.4l-0.3-0.4l-0.3-0.4l-0.3-0.4l-0.3-0.4L102,143l-0.3-0.4
				l-0.3-0.4l-0.3-0.4l-0.3-0.4l-0.3-0.4l-0.3-0.4l-0.3-0.4l-0.3-0.4l-0.3-0.4L99,139l-0.3-0.4l-0.3-0.4l-0.3-0.4l-0.3-0.4l-0.3-0.4
				l-0.3-0.4l-0.3-0.4l-0.3-0.4l-0.3-0.4L96,135l-0.2-0.4l-0.2-0.4l-0.2-0.4l-0.2-0.4L95,133l-0.2-0.4l-0.3-0.6l-0.3-0.6l-0.3-0.6
				l-0.3-0.6l-0.3-0.6L93,129l-0.3-0.6l-0.2-0.6l-0.2-0.6l-0.2-0.6l-0.2-0.6l-0.2-0.6l-0.2-0.6l-0.2-0.6l-0.2-0.6l-0.2-0.6l-0.2-0.6
				l-0.2-0.6l-0.2-0.6l-0.1-0.6l-0.1-0.6l-0.1-0.6l-0.1-0.6l-0.1-0.6l-0.1-0.6l-0.1-0.6l-0.1-0.7l-0.1-0.6l-0.1-0.7l-0.1-0.7v-0.7
				v-0.7v-0.7v-0.7v-0.7v-0.7v-0.7v-0.7V108v-0.7l0.4-7.6l-1-15v-0.2v-0.2v-0.2v-0.2v-0.2v-0.2v-0.2v-0.2v-0.2v-0.2v-0.2v-0.2v-0.2
				v-0.2v-0.2v-0.2v-0.2v-0.2v-0.2v-0.2v-0.2v-0.2v-0.2v-0.2v-0.2v-0.2v-0.2v-0.2v-0.2v-0.2v-0.2v-0.2v-0.2v-0.2v-0.2v-0.2v-0.2
				v-0.2v-0.2v-0.2l-0.2-0.9l-0.2-0.9L88,74l-1.5,0l-0.3-0.9l-0.3-0.9l-0.3-0.9l-0.3-0.9L85,69.7l-0.3-0.8L84.4,68L84,67.2l-0.4-0.8
				l-0.4-0.8l-0.4-0.8L82.4,64L82,63.2l-0.4-0.8l-0.4-0.8l-0.4-0.8L80.3,60l-0.5-0.8l-0.5-0.8l-0.5-0.8l-0.5-0.7l-0.5-0.7l-0.5-0.7
				l-0.5-0.7L76.2,54l-0.6-0.7L75,52.6l-0.6-0.7l-0.6-0.7l-0.6-0.7l-0.6-0.7L72,49.1l-0.6-0.7l-0.6-0.6l-0.6-0.6l-0.7-0.6L65.6,43
				l4.7,1.5l0.7,0.2l0,0L71.6,44.9z M342.5,127.7l1.1,0.5l1,0.6l0.9,0.7l0.8,0.8l0.7,0.9l0.6,1l0.5,1.1l0.4,1.1l0.3,1.2l0.1,1.2v1.3
				l-0.1,1.7l-0.1,1.1l-0.2,1.1l-0.3,1l-0.4,1l-0.5,0.9l-0.6,0.8l-0.7,0.8l-0.8,0.7l-0.8,0.6l-0.9,0.6l-0.9,0.5l-1,0.4l-1,0.3
				l-1.1,0.2h-1.1l-1.2-0.1l-1.2-0.2l-1.1-0.3l-1.1-0.4l-1-0.5l-1-0.6l-0.9-0.7l-0.8-0.8l-0.7-0.9l-0.6-1l-0.5-1l-0.4-1.1l-0.3-1.1
				l-0.2-1.2l-0.1-1.2V137l0.1-1l0.1-1l0.2-1l0.3-0.9l0.4-0.9l0.5-0.8l0.6-0.8l0.6-0.7l0.7-0.6l0.8-0.6l0.8-0.5l0.9-0.4l0.9-0.3
				l1-0.2l1-0.1l1.5-0.1h1.3l1.2,0.1l1.2,0.3l0,0L342.5,127.7z M105.4,146.7l0.1,0.1l0.1,0.1l0.4,0.3l0.4,0.3l0.4,0.3l-2.6-2.3
				l0.4,0.4l0.4,0.4l0,0L105.4,146.7z M261.9,140.7l-0.4,0.2l-0.2,0.1l-0.5,0.2l-0.5,0.2l-0.5,0.2l-0.5,0.2l4.5-1.9l-0.7,0.3
				l-0.7,0.3l0,0L261.9,140.7z M161.1,5.9l0.5,0.5l0.5,0.6l0.5,0.6l0.5,0.6l0.5,0.6l0.5,0.6l0.5,0.6l0.4,0.6l0.4,0.6l0.4,0.6
				l0.4,0.6l0.4,0.6l0.4,0.6l0.4,0.6l0.4,0.6l0.4,0.6l0.4,0.6l0.4,0.6l0.4,0.6l0.4,0.6l0.4,0.6l0.4,0.6l0.4,0.6l0.4,0.6l0.4,0.6
				l0.3,0.6l0.3,0.6l0.3,0.6l0.3,0.6l0.3,0.6l0.3,0.6l0.3,0.7l0.3,0.7l0.3,0.7l0.1,0.3l0.1,0.2l0.2,0.5l0.2,0.5l0.2,0.5l0.2,0.5
				l0.1,0.5l0.1,0.5l0.1,0.5l0.1,0.5l0.1,0.5l0.1,0.5l0.1,0.5l0.1,0.5l0.1,0.5l0.1,0.5l0.1,0.5l0.1,0.5l0.1,0.5l0.1,0.5l0.1,0.5
				l0.1,0.5l0.1,0.5l0.1,0.5l0.1,0.5l0.1,0.5l0.1,0.5l0.1,0.5l0.1,0.5V41l0.1,0.5V42v0.5V43v0.5V44v0.5v0.1v0.7V46v0.7v0.7v0.7v0.7
				v0.7v0.7v0.7l-0.1,0.7l-0.1,0.7l-0.1,0.7l-0.1,0.7l-0.1,0.7l-0.1,0.7l-0.1,0.7l-0.1,0.7l-0.1,0.7l-0.1,0.7l-0.2,0.7l-0.2,0.7
				l-0.2,0.6l-0.2,0.7l-0.2,0.7l-0.2,0.6l-0.2,0.6l-0.2,0.6l-0.2,0.6l-0.2,0.6l-0.3,0.6l-0.3,0.6l-0.3,0.6l-0.3,0.6l-0.3,0.6
				l-0.3,0.6l-0.3,0.6l-0.3,0.6l-0.3,0.6l-0.3,0.6l-0.3,0.6l-0.9,1.5l-9,17.4l-0.3,0.6l-0.4,0.9l-0.4,0.9l-0.4,0.9l-0.4,0.9
				l-0.3,0.9l-0.3,0.9l-0.3,0.9l-0.3,0.9l-0.3,0.9l-0.3,0.9l-0.3,0.9l-0.2,0.9l-0.2,1l-0.2,0.9l-0.2,1l-0.2,1l-0.2,1l-0.2,1l-0.1,1
				l-0.1,1l-0.1,1l-0.1,1l-0.1,1l-0.1,1v1v1v1v1v1v1v1v1l0.1,1l0.1,1l0.1,1l0.1,1l0.1,1l0.1,1l0.1,1l0.2,1l2.1,11.8l-8.4-11.2
				l-0.3-0.4l-0.3-0.5l-0.3-0.4l-0.3-0.5l-0.3-0.5l-0.3-0.5l-0.3-0.5l-0.3-0.5l-0.3-0.5l-0.3-0.5l-0.3-0.5l-0.3-0.5l-0.3-0.5
				l-0.3-0.5l-0.3-0.5l-0.3-0.5l-0.3-0.5l-0.3-0.5l-0.3-0.5l-0.3-0.5l-0.3-0.5l-0.2-0.5l-0.2-0.5l-0.2-0.5l-0.2-0.5l-0.2-0.5
				l-0.2-0.5l-0.2-0.5l-0.2-0.5l-0.2-0.5l-0.2-0.5l-0.2-0.5l-0.2-0.5l-0.2-0.5l-0.2-0.5l-0.2-0.5l-0.1-0.4l-0.1-0.3l-0.1-0.5
				l-0.1-0.5l-0.1-0.5l-0.1-0.5l-0.1-0.5l-0.1-0.5l-0.1-0.5l-0.1-0.5l-0.1-0.5l-0.1-0.5l-0.1-0.5l-0.1-0.5l-0.1-0.5l-0.1-0.5
				l-0.1-0.5l-0.1-0.5l-0.1-0.5l-0.1-0.5l-0.1-0.5l-0.1-0.5l-0.1-0.5v-0.5v-0.5v-0.5v-0.5v-0.5v-0.5v-0.5v-0.5v-0.5v-0.5v-0.5v-0.5
				v-0.5v-0.5v-0.5v-0.7v-0.7v-0.7v-0.7l0.1-0.7l0.1-0.7l0.1-0.7l0.1-0.7l0.1-0.7l0.1-0.6l0.1-0.6l0.1-0.6l0.1-0.6l0.1-0.6l0.1-0.6
				l0.2-0.6l0.2-0.6l0.2-0.6l0.2-0.6l0.2-0.6l0.2-0.6l0.2-0.6l0.2-0.6l0.2-0.6l0.2-0.6l0.2-0.6l0.2-0.6l0.3-0.6l0.3-0.6l0.3-0.6
				l0.3-0.6l0.3-0.6l0.3-0.6l0.3-0.6l0.3-0.6l0.3-0.6l0.3-0.6l0.3-0.6l0.3-0.6l0.3-0.6l4-6.4l6.5-13.5l0.1-0.2l0.1-0.2l0.1-0.2
				l0.1-0.2l0.1-0.2l0.1-0.2l0.1-0.2l0.1-0.2l0.1-0.2L157,47l0.1-0.2l0.1-0.2l0.1-0.2l0.1-0.2l0.1-0.2l0.1-0.2l0.1-0.2l0.1-0.2
				l0.1-0.2L158,45l0.1-0.2l0.1-0.2l0.1-0.2l0.1-0.2l0.1-0.2l0.1-0.2l0.1-0.2l0.1-0.2l0.1-0.2V43l0.1-0.2l0.1-0.2v-0.2l0.1-0.2V42
				l0.1-0.2v-0.2v-0.2l0.1-0.2V41l0.2-0.9l0.2-0.9l0.2-0.9l0.2-0.9l0.2-0.9l0.2-0.9l0.2-0.9l0.2-0.9l0.1-0.9l0.1-0.9l0.1-0.9
				l0.1-0.9l0.1-0.9l0.1-0.9l0.1-0.9v-0.9v-0.9v-0.9v-0.9V23v-0.9v-0.9v-0.9l-0.1-0.9l-0.1-0.9l-0.1-0.9l-0.1-0.9l-0.1-0.9l-0.1-0.9
				L161,14l-0.1-0.9l-0.2-0.9l-0.2-0.9l-0.2-0.9l-0.2-0.9l-0.2-0.9L159.2,9L159,8.1l-0.3-0.9l-0.3-0.9l-1.6-5.1l3.3,3.6l0.5,0.5l0,0
				L161.1,5.9z M331,69.4l-0.2,0.7l-0.2,0.7l-0.2,0.7l-0.2,0.7l-0.2,0.7l-0.2,0.7l-0.2,0.7l-0.3,0.7l-0.3,0.7l-0.3,0.7l-0.3,0.7
				l-0.3,0.7l-0.3,0.7l-0.3,0.7l-0.3,0.7l-0.3,0.7l-0.3,0.6l-0.3,0.6l-0.3,0.6l-0.3,0.6l-0.3,0.6l-0.3,0.6l-0.3,0.6l-0.4,0.6L324,86
				l-0.4,0.6l-0.4,0.6l-0.4,0.6l-0.4,0.6L322,89l-0.4,0.6l-0.4,0.6l-0.4,0.6l-0.4,0.6l-0.2,0.3l-0.2,0.2l-0.3,0.4l-0.3,0.4l-0.3,0.4
				l-0.3,0.4l-0.3,0.4l-0.3,0.4l-0.3,0.4l-0.4,0.4l-0.4,0.4l-0.4,0.4l-0.4,0.4l-0.4,0.4l-0.4,0.4l-0.4,0.4l-0.4,0.4l-0.4,0.3
				l-0.4,0.3l-0.4,0.3l-0.4,0.3l-0.4,0.3l-0.4,0.3l-0.4,0.3l-0.4,0.3l-0.4,0.3l-0.4,0.3l-0.4,0.3l-0.4,0.3l-0.4,0.3l-0.4,0.3
				l-0.4,0.3l-0.4,0.3L308,103l-0.4,0.3l-0.4,0.3l-0.4,0.3l0,0l-0.6,0.4l-0.6,0.4l-0.6,0.4l-0.6,0.3l-0.6,0.3l-0.6,0.3l-0.6,0.3
				l-0.6,0.3l-0.6,0.3l-0.6,0.3l-0.6,0.3l-0.6,0.3l-0.6,0.3l-0.6,0.3l-0.6,0.2l-0.6,0.2l-0.6,0.2l-0.6,0.2l-0.6,0.2l-0.6,0.2
				l-0.6,0.2l-0.7,0.2l-0.6,0.2l-0.7,0.2l-0.7,0.2l-0.7,0.2l-0.7,0.1l-0.7,0.1l-0.7,0.1l-0.7,0.1l-0.7,0.1l-0.7,0.1l-0.7,0.1
				l-0.7,0.1l-0.7,0.1l-0.7,0.1h-0.7h-0.7h-0.7H281h-1.7l-19.6,1.4l-0.7,0.1l-1,0.1l-1,0.1l-1,0.1l-1,0.2l-1,0.2l-1,0.2l-1,0.2
				l-1,0.2l-0.9,0.2l-0.9,0.3l-0.9,0.3l-0.9,0.3l-0.9,0.3l-0.9,0.3l-0.9,0.3l-0.9,0.3l-0.9,0.3l-0.9,0.4l-0.9,0.4l-0.9,0.4l-0.9,0.4
				l-0.9,0.4l-0.9,0.4l-0.9,0.4l-0.9,0.5l-0.9,0.5l-0.9,0.5l-0.8,0.5l-0.8,0.5l-0.8,0.5l-0.8,0.5l-0.8,0.5l-0.8,0.6l-0.8,0.6
				l-0.8,0.6l-0.8,0.6l-0.8,0.6l-0.8,0.6l-0.8,0.6l-0.7,0.6l-9,7.8l5.2-13l0.2-0.5l0.2-0.5l0.2-0.5l0.2-0.5l0.2-0.5l0.2-0.5l0.2-0.5
				l0.2-0.5l0.2-0.5l0.2-0.5l0.3-0.5l0.3-0.5l0.3-0.5l0.3-0.5l0.3-0.5l0.3-0.5l0.3-0.5l0.3-0.5l0.3-0.5l0.3-0.5l0.3-0.5l0.3-0.5
				l0.3-0.5l0.3-0.5l0.3-0.5l0.3-0.5l0.3-0.5l0.3-0.5l0.3-0.5l0.3-0.5l0.3-0.5l0.3-0.4l0.3-0.4l0.3-0.4l0.3-0.4l0.4-0.4l0.3-0.3
				l0.2-0.2l0.3-0.4l0.3-0.4l0.3-0.3l0.3-0.4l0.3-0.3l0.3-0.3l0.4-0.3l0.3-0.3l0.4-0.3l0.4-0.3l0.4-0.3l0.4-0.3l0.4-0.3l0.4-0.3
				l0.4-0.3l0.4-0.3l0.4-0.3l0.4-0.3l0.4-0.3l0.4-0.3l0.4-0.3l0.4-0.3l0.4-0.3l0.4-0.3l0.4-0.3l0.4-0.3l0.4-0.3l0.4-0.3l0.4-0.3
				l0.4-0.3l0.4-0.3l0.4-0.3l0.4-0.3l0.4-0.2l0.4-0.3l0.4-0.2l0.6-0.3l0.6-0.3l0.6-0.3l0.6-0.3l0.6-0.3l0.6-0.3l0.6-0.3l0.6-0.3
				l0.6-0.3l0.6-0.3l0.6-0.2l0.6-0.2l0.6-0.2l0.6-0.2l0.6-0.2l0.6-0.2l0.6-0.2l0.6-0.2l0.6-0.2l0.6-0.2l0.6-0.2l0.6-0.1l0.6-0.1
				l0.6-0.1l0.6-0.1l0.6-0.1l0.6-0.1l0.7-0.1l0.6-0.1l0.7-0.1l0.7-0.1l0.7-0.1l0.7-0.1h0.7h0.7h0.7h0.7h0.7h0.7h0.7l7.6,0.1
				l14.9-1.4h0.2h0.2h0.2h0.2h0.2h0.2h0.2h0.2h0.2h0.2h0.2h0.2h0.2h0.2h0.2h0.2h0.2h0.2h0.2h0.2h0.2h0.2h0.2h0.2h0.2h0.2h0.2h0.2
				h0.2h0.2h0.2h0.2h0.2h0.2h0.2h0.2h0.2h0.2h0.2h0.2l0.9-0.2l0.9-0.3l0.9-0.3l0.9-0.3l0.9-0.3l0.9-0.3l0.9-0.3l0.8-0.3l0.8-0.3
				l0.8-0.4l0.8-0.4l0.8-0.4l0.8-0.4l0.8-0.4l0.8-0.4l0.8-0.4l0.8-0.4l0.8-0.5l0.8-0.5l0.8-0.5l0.8-0.5l0.8-0.5l0.7-0.5l0.7-0.5
				l0.7-0.5l0.7-0.5l0.7-0.5l0.7-0.6l0.7-0.6l0.7-0.6l0.7-0.6l0.7-0.6l0.7-0.6l0.7-0.6l0.6-0.6l0.6-0.6l0.6-0.6l0.6-0.7l0.6-0.7
				l0.6-0.7l3.5-4.1l-1.3,4.7l-0.2,0.7l0,0L331,69.4z M251.5,13.7l0.2,0.7l0.2,0.7l0.2,0.7l0.2,0.7l0.2,0.7l0.2,0.7l0.2,0.7l0.1,0.7
				l0.1,0.7l0.1,0.7l0.1,0.7l0.1,0.7l0.1,0.7l0.1,0.7l0.1,0.7l0.1,0.7l0.1,0.7l0.1,0.7l0.1,0.7l0.1,0.7l0.1,0.7l0.1,0.7v0.7v0.7v0.7
				v0.7v0.7v0.7V34v0.7v0.7v0.7v0.7v0.7V38v0.4l-0.1,0.5l-0.1,0.5l-0.1,0.5l-0.1,0.5l-0.1,0.5l-0.1,0.5l-0.1,0.5l-0.1,0.5l-0.1,0.5
				l-0.1,0.5l-0.1,0.5l-0.1,0.5l-0.1,0.5l-0.1,0.5l-0.1,0.5l-0.1,0.5l-0.1,0.5l-0.1,0.5l-0.1,0.5l-0.1,0.5l-0.2,0.5l-0.1,0.5
				l-0.2,0.5l-0.2,0.5l-0.2,0.5l-0.2,0.5l-0.2,0.5l-0.2,0.5l-0.2,0.5l-0.2,0.5l-0.2,0.5l-0.2,0.5l-0.2,0.5l-0.2,0.5l-0.2,0.5V56
				l-0.3,0.6l-0.3,0.6l-0.3,0.6l-0.3,0.6L248,59l-0.3,0.6l-0.3,0.6l-0.4,0.6l-0.4,0.6l-0.4,0.6l-0.4,0.6l-0.4,0.6l-0.4,0.5l-0.4,0.5
				l-0.4,0.5l-0.4,0.5l-0.4,0.5l-0.4,0.5l-0.4,0.5l-0.4,0.5l-0.5,0.5l-0.5,0.5l-0.5,0.5l-0.5,0.5l-0.5,0.5l-0.5,0.5l-0.5,0.4
				l-0.5,0.4l-0.5,0.4l-0.5,0.4l-0.5,0.4l-0.5,0.4l-0.5,0.4l-0.6,0.4l-0.6,0.4l-0.6,0.4l-0.6,0.4l-0.6,0.3l-0.6,0.3l-0.6,0.3l-2,1.1
				l-16.3,10.3l-1,0.7l-0.8,0.6l-0.8,0.6l-0.8,0.6L209,90l-0.7,0.6l-0.7,0.6l-0.7,0.6l-0.7,0.6l-0.7,0.7l-0.7,0.7l-0.7,0.7l-0.7,0.7
				l-0.6,0.7l-0.6,0.7l-0.6,0.7L201,98l-0.6,0.7l-0.6,0.8l-0.6,0.8l-0.6,0.8l-0.6,0.8l-0.5,0.8l-0.5,0.8l-0.5,0.8l-0.5,0.8l-0.5,0.8
				l-0.5,0.8l-0.5,0.8l-0.5,0.8l-0.4,0.9l-0.4,0.9l-0.4,0.9l-0.4,0.9l-0.4,0.9l-0.4,0.9l-0.4,0.9l-0.3,0.9l-0.3,0.9l-0.3,0.9
				l-0.3,0.9l-3.5,11.4l-3-14.5l-0.1-0.5l-0.1-0.5l-0.1-0.5l-0.1-0.5l-0.1-0.5l-0.1-0.5l-0.1-0.5l-0.1-0.5l-0.1-0.5l-0.1-0.5
				l-0.1-0.5v-0.5l-0.1-0.6V108v-0.5v-0.6v-0.5v-0.5v-0.6v-0.5v-0.6v-0.5v-0.6v-0.5V102v-0.5v-0.6v-0.5v-0.6v-0.5v-0.6v-0.5v-0.5
				v-0.6l0.1-0.5V96l0.1-0.5l0.1-0.4l0.1-0.5l0.1-0.5l0.1-0.5l0.1-0.5l0.1-0.5l0.1-0.5l0.1-0.5l0.1-0.5l0.1-0.5l0.1-0.5l0.1-0.5
				l0.1-0.5l0.1-0.5l0.1-0.5l0.1-0.5l0.1-0.5l0.2-0.5l0.2-0.5l0.2-0.4l0.2-0.5l0.2-0.4l0.2-0.4l0.2-0.4l0.2-0.4l0.2-0.4l0.2-0.4
				l0.2-0.4l0.2-0.4l0.2-0.4l0.2-0.4l0.2-0.4l0.2-0.4l0.2-0.4l0.2-0.4l0.2-0.4l0.2-0.4l0.3-0.6l0.3-0.6l0.3-0.6l0.3-0.6l0.4-0.6
				l0.4-0.5l0.4-0.5l0.4-0.5l0.4-0.5l0.4-0.5l0.4-0.5l0.4-0.5l0.4-0.5l0.4-0.5l0.4-0.5l0.4-0.5l0.4-0.5l0.4-0.5l0.5-0.5l0.5-0.5
				l0.5-0.5l0.5-0.4l0.5-0.4l0.5-0.4l0.5-0.4l0.5-0.4l0.5-0.4L200,65l0.5-0.4l0.5-0.4l0.5-0.4l0.5-0.4l0.5-0.4l0.5-0.4l0.6-0.3
				l0.6-0.3l0.6-0.3l0.6-0.3l0.6-0.3l0.6-0.3l7.2-3.7l12.5-8.5l0.1-0.1l0.1-0.1l0.1-0.1l0.1-0.1l0.1-0.1l0.1-0.1l0.1-0.1l0.1-0.1
				l0.1-0.1l0.1-0.1l0.1-0.1l0.1-0.1l0.1-0.1l0.1-0.1l0.1-0.1l0.1-0.1l0.1-0.1l0.1-0.1l0.1-0.1l0.1-0.1l0.1-0.1l0.1-0.1l0.1-0.1
				l0.1-0.1l0.1-0.1l0.1-0.1l0.1-0.1l0.1-0.1l0.1-0.1l0.1-0.1l0.1-0.1l0.1-0.1l0.1-0.1l0.1-0.1l0.1-0.1l0.1-0.1l0.1-0.1l0.1-0.1
				l0.1-0.1l0.1-0.1l0.1-0.1l0.6-0.6l0.6-0.6l0.6-0.6l0.6-0.6l0.6-0.7l0.6-0.7l0.6-0.7l0.6-0.7l0.5-0.7l0.5-0.7l0.5-0.7l0.5-0.7
				l0.5-0.7l0.5-0.7l0.5-0.7l0.5-0.7l0.5-0.8l0.4-0.8l0.4-0.8l0.4-0.8l0.4-0.8l0.4-0.8l0.4-0.8l0.4-0.8l0.3-0.8l0.3-0.8l0.3-0.8
				l0.3-0.8l0.3-0.8l0.3-0.8l0.3-0.8l0.3-0.8l0.2-0.9l0.2-0.9l0.2-0.9l0.2-0.9L248,15l0.2-0.9l0.2-0.9l0.1-0.9l0.8-5.5l1.8,5.5
				l0.2,0.7l0,0L251.5,13.7z M42.3,124.1l-0.7-0.1h-0.4h-0.3l-0.5-0.1l-0.5-0.1l-0.5-0.1l-0.5-0.1l4.8,0.7l-0.7-0.1l0,0L42.3,124.1z
				 M140.6,111.1l0.1,0.1v0.2l0.1,0.5l0.1,0.5l0.1,0.5l-1.1-3.3l0.2,0.5l0.2,0.5l0,0L140.6,111.1z M230.3,106.3l-0.1,0.1l-0.1,0.1
				l-0.3,0.4l-0.3,0.4l-0.3,0.4l2.3-2.6l-0.4,0.4l-0.4,0.4l0,0L230.3,106.3z M183,94.2L183,94.2L183,94.2l-0.1,0.6l-0.1,0.5
				l-0.1,0.5l0.5-3.2l-0.1,0.5l-0.1,0.5l0,0L183,94.2z M319.4,92.6l0.4-0.6l0.2-0.3l0.2-0.2l0.3-0.4l0.3-0.4l0.3-0.4l0.3-0.4
				l-2.9,3.9l0.4-0.6l0,0L319.4,92.6z M74.1,71.5l1.1,0.5l1,0.6l0.9,0.7l0.8,0.8l0.7,0.9l0.6,1l0.5,1.1l0.4,1.1l0.3,1.2l0.1,1.2v1.3
				l-0.1,1.7l-0.1,1.1l-0.2,1.1l-0.3,1l-0.4,1l-0.5,0.9l-0.6,0.8l-0.7,0.8L76.8,91L76,91.8l-0.9,0.5l-0.9,0.5l-1,0.4l-1,0.3
				l-1.1,0.2H70l-1.2-0.1l-1.2-0.2l-1.1-0.3l-1.1-0.4l-1-0.5l-1-0.6l-0.9-0.7l-0.8-0.8L60.9,89l-0.6-1l-0.5-1l-0.5-1L59,84.8
				l-0.2-1.2l-0.1-1.2v-1.6v-1l0.2-1l0.2-1l0.3-0.9l0.4-0.9l0.5-0.8l0.6-0.8l0.6-0.7l0.7-0.6l0.8-0.6l0.8-0.5l0.9-0.4l0.9-0.3l1-0.2
				l1-0.1l1.5-0.1h1.3l1.2,0.1l1.2,0.3l0,0L74.1,71.5z M298.3,57.1l1.1,0.5l1,0.6l0.9,0.7l0.8,0.8l0.7,0.9l0.6,1l0.5,1.1l0.4,1.1
				l0.3,1.2l0.1,1.2v1.3l-0.1,1.7l-0.1,1.1l-0.2,1.1l-0.3,1l-0.4,1l-0.5,0.9l-0.6,0.8l-0.7,0.8l-0.8,0.7l-0.8,0.6l-0.9,0.6l-0.9,0.5
				l-1,0.4l-1,0.3l-1.1,0.2h-1.1l-1.2-0.1l-1.2-0.2l-1.1-0.3l-1.1-0.4l-1-0.5l-1-0.6l-0.9-0.7l-0.8-0.8l-0.7-0.9l-0.6-1l-0.5-1
				l-0.4-1.1l-0.3-1.1l-0.2-1.2l-0.1-1.2v-1.6v-1l0.1-1l0.2-1l0.3-0.9l0.4-0.9l0.5-0.8l0.6-0.8l0.6-0.7l0.7-0.6l0.8-0.6l0.8-0.5
				l0.9-0.4l0.9-0.3l1-0.2l1-0.1l1.5-0.1h1.3l1.2,0.1l1.2,0.3l0,0L298.3,57.1z M94.5,57.2l-0.6-0.4l-0.3-0.2l-0.2-0.2L93,56
				l-0.4-0.3l-0.4-0.3L91.8,55l3.8,3.1L95,57.6l0,0L94.5,57.2z M142.7,23.3l1.1,0.5l1,0.6l0.9,0.7l0.8,0.8l0.7,0.9l0.6,1l0.5,1.1
				l0.4,1.1l0.3,1.2l0.1,1.2v1.3l-0.1,1.7l-0.1,1.1l-0.2,1.1l-0.3,1l-0.4,1l-0.5,0.9l-0.6,0.8l-0.7,0.8l-0.8,0.7l-0.8,0.6l-0.9,0.5
				l-0.9,0.5l-1,0.4l-1,0.3l-1.1,0.2h-1.1l-1.2-0.1l-1.2-0.2l-1.1-0.3l-1.1-0.4l-1-0.5l-1-0.6l-0.9-0.7l-0.8-0.8l-0.7-0.9l-0.6-1
				l-0.5-1l-0.4-1.1l-0.3-1.1l-0.2-1.2l-0.1-1.2v-1.6l0.1-1l0.1-1l0.2-1l0.3-0.9l0.4-0.9l0.5-0.8l0.6-0.8l0.6-0.7l0.7-0.6l0.8-0.6
				l0.8-0.5l0.9-0.4l0.9-0.3l1-0.2l1-0.1l1.5-0.1h1.3l1.2,0.1l1.2,0.3l0,0L142.7,23.3z M254.5,39.1v-0.7v-0.2v-0.1v-0.5v-0.5v-0.5
				v-0.5l-0.3,4.5v-0.7l0,0L254.5,39.1z M223.1,18.4l1.1,0.5l1,0.6l0.9,0.7l0.8,0.8l0.7,0.9l0.6,1l0.5,1.1l0.4,1.1l0.3,1.2l0.1,1.2
				v1.3l-0.1,1.7l-0.1,1.1l-0.2,1.1l-0.3,1l-0.4,1l-0.5,0.9l-0.6,0.8l-0.7,0.8l-0.8,0.7l-0.8,0.6l-0.9,0.5l-0.9,0.5l-1,0.4l-1,0.3
				l-1.1,0.2H219l-1.2-0.1l-1.2-0.2l-1.1-0.3l-1.1-0.4l-1-0.5l-1-0.6l-0.9-0.7l-0.8-0.8l-0.7-0.9l-0.6-1l-0.5-1l-0.4-1.1l-0.3-1.1
				l-0.2-1.2l-0.1-1.2v-1.6v-1l0.1-1l0.2-1l0.3-0.9l0.4-0.9l0.5-0.8l0.6-0.8l0.6-0.7l0.7-0.6l0.8-0.6l0.8-0.5l0.9-0.4l0.9-0.3l1-0.2
				l1-0.1l1.5-0.1h1.3l1.2,0.1l1.2,0.3l0,0L223.1,18.4z M175,27.8l-0.3-0.7l-0.2-0.4l-0.1-0.2l-0.2-0.5l-0.2-0.5l-0.2-0.5l-0.2-0.5
				l1.8,4.5l-0.3-0.7l0,0L175,27.8z"/>
		</g>
		<g>
			<g>
				<path id="b3zrMwKsZm_1_" class="st1" d="M268.2,185.2h0.7h0.7h0.7h0.7h0.7l0.7,0.1l0.7,0.1l0.7,0.1l0.7,0.1l0.7,0.1h0.3h0.2
					l0.5,0.1l0.5,0.1l0.5,0.1l0.5,0.1l0.5,0.1l0.5,0.1l0.5,0.1l0.5,0.1l0.5,0.1l0.5,0.1l0.5,0.1l0.5,0.1l0.5,0.2l0.5,0.2l0.5,0.2
					l0.5,0.2l0.5,0.2l0.5,0.2l0.5,0.2l0.5,0.2l0.5,0.2l0.5,0.2l0.5,0.2l0.5,0.2l0.5,0.2l0.5,0.2l0.5,0.2l0.5,0.2l0.5,0.2l0.5,0.2
					l0.5,0.2l0.5,0.2l0.5,0.2l0.5,0.2l0.5,0.2l0,0l0.6,0.3l0.6,0.3l0.6,0.4l0.6,0.4l0.6,0.4l0.6,0.4l0.6,0.4l0.6,0.4l0.6,0.4
					l0.6,0.4l0.5,0.4l0.5,0.4l0.5,0.4l0.5,0.4l0.5,0.4l0.5,0.5l0.5,0.5l0.5,0.5l0.5,0.5l0.5,0.5l0.5,0.5l0.5,0.5l0.5,0.5l0.5,0.5
					l0.5,0.5l0.4,0.5l0.4,0.5l0.4,0.5l0.4,0.5l0.4,0.5l0.4,0.6l0.4,0.6l0.4,0.6l0.4,0.6l0.4,0.6l0.4,0.6l0.4,0.6l0.4,0.6l0.3,0.6
					l0.3,0.6l0.8,1.5l10.3,16.7l0.4,0.6l0.6,0.8l0.6,0.8l0.6,0.8l0.6,0.8l0.6,0.8l0.6,0.8l0.6,0.7l0.6,0.7l0.7,0.7l0.7,0.7l0.7,0.7
					l0.7,0.7l0.7,0.7l0.7,0.7l0.7,0.7l0.7,0.7l0.7,0.6l0.7,0.6l0.8,0.6l0.8,0.6l0.8,0.6l0.8,0.6l0.8,0.6l0.8,0.6l0.8,0.6l0.8,0.5
					l0.8,0.5l0.8,0.5l0.8,0.5l0.8,0.5l0.9,0.5l0.9,0.5l0.9,0.5l0.9,0.4l0.9,0.4l0.9,0.4l0.9,0.4l0.9,0.4l0.9,0.4l0.9,0.4l11.1,4.3
					l-13.9,1.5l-0.6,0.1h-0.6h-0.6h-0.6h-0.6H348h-0.6h-0.6h-0.6h-0.6H345h-0.6h-0.6h-0.6h-0.6H342h-0.6h-0.6h-0.6h-0.6H339h-0.6
					h-0.6h-0.6h-0.6l-0.6-0.1l-0.6-0.1l-0.6-0.1l-0.6-0.1l-0.5-0.1l-0.6-0.1l-0.6-0.1l-0.6-0.1l-0.6-0.1l-0.5-0.1l-0.6-0.1l-0.4-0.1
					l-0.3-0.1l-0.5-0.1l-0.5-0.1l-0.5-0.1l-0.5-0.1l-0.5-0.1l-0.5-0.1l-0.5-0.1l-0.5-0.2l-0.5-0.2l-0.5-0.2l-0.5-0.2l-0.5-0.2
					l-0.5-0.2l-0.5-0.2l-0.5-0.2l-0.5-0.2l-0.4-0.2l-0.5-0.2l-0.4-0.2l-0.4-0.2l-0.4-0.2l-0.4-0.2l-0.4-0.2l-0.4-0.2l-0.4-0.2
					l-0.4-0.2l-0.4-0.2l-0.4-0.2l-0.4-0.2l-0.4-0.2l-0.4-0.2l-0.4-0.2l-0.4-0.2l-0.4-0.2l-0.4-0.3l-0.4-0.3l-0.6-0.4l-0.6-0.4
					l-0.6-0.4l-0.6-0.4l-0.5-0.4l-0.5-0.4l-0.5-0.4l-0.5-0.4l-0.5-0.4l-0.5-0.4l-0.5-0.4l-0.5-0.4l-0.5-0.4l-0.5-0.4l-0.5-0.5
					l-0.5-0.5l-0.5-0.5l-0.5-0.5l-0.5-0.5l-0.5-0.5l-0.4-0.5l-0.4-0.5l-0.4-0.5l-0.4-0.5l-0.4-0.5l-0.4-0.5l-0.4-0.5l-0.4-0.5
					l-0.4-0.5l-0.4-0.5l-0.4-0.6l-0.4-0.6l-0.4-0.6l-0.4-0.6l-0.3-0.6l-0.3-0.6l-0.3-0.6l-0.3-0.6l-0.3-0.6l-0.3-0.6l-3.5-6.8
					l-8.3-12.5l-0.1-0.1l-0.1-0.1l-0.1-0.1l-0.1-0.1l-0.1-0.1l-0.1-0.1l-0.1-0.1l-0.1-0.1l-0.1-0.1l-0.1-0.1l-0.1-0.1l-0.1-0.1
					l-0.1-0.1l-0.1-0.1l-0.1-0.1l-0.1-0.1l-0.1-0.1l-0.1-0.1l-0.1-0.1l-0.1-0.1l-0.1-0.1l-0.1-0.1l-0.1-0.1l-0.1-0.1l-0.1-0.1
					l-0.1-0.1l-0.1-0.1l-0.1-0.1l-0.1-0.1l-0.1-0.1l-0.1-0.1l-0.1-0.1l-0.1-0.1l-0.1-0.1l-0.1-0.1l-0.1-0.1l-0.1-0.1l-0.1-0.1
					l-0.1-0.1l-0.1-0.1l-0.6-0.7l-0.6-0.7l-0.6-0.6l-0.6-0.6l-0.7-0.6l-0.7-0.6l-0.7-0.6l-0.7-0.6l-0.7-0.6l-0.7-0.6l-0.7-0.6
					l-0.7-0.6l-0.7-0.5l-0.7-0.5l-0.7-0.5l-0.7-0.5l-0.7-0.5l-0.8-0.5l-0.8-0.5l-0.8-0.5l-0.8-0.5l-0.8-0.4l-0.8-0.4l-0.8-0.4
					l-0.8-0.4l-0.8-0.4l-0.8-0.4l-0.8-0.4l-0.8-0.4l-0.8-0.3l-0.8-0.3l-0.8-0.3l-0.9-0.3l-0.9-0.3l-0.9-0.3l-0.9-0.3l-0.9-0.3
					l-0.9-0.2l-0.9-0.2l-0.9-0.2l-5.2-1.2l4.8-1l0.7-0.1l0.7-0.1l0.7-0.1l0.7-0.1l0.7-0.1l0.7-0.1l0.7-0.1l0.7-0.1l0.7-0.1l0.7-0.1
					l0.7-0.1l0.7-0.1l0.7-0.1l0.7-0.1l0.7-0.1h0.7h0.7h0.7h0.7h0.7h0.7h0.7h0.7h0.7h0.7l0,0L268.2,185.2z M330.6,258.3h0.1h0.2
					l0.5,0.1l0.5,0.1l0.5,0.1L329,258l0.5,0.1l0.5,0.1l0,0L330.6,258.3z M42.3,232.9l1.1,0.5l1,0.6l0.9,0.7l0.8,0.8l0.7,0.9l0.6,1
					l0.5,1.1l0.4,1.1l0.3,1.2l0.1,1.2v1.3l-0.1,1.7l-0.1,1.1l-0.2,1.1l-0.3,1l-0.4,1l-0.5,0.9l-0.6,0.8l-0.7,0.8l-0.8,0.7l-0.8,0.6
					l-0.9,0.5l-0.9,0.5l-1,0.4l-1,0.3l-1.1,0.2h-1.1l-1.2-0.1l-1.2-0.2l-1.1-0.3l-1.1-0.4l-1-0.5l-1-0.6l-0.9-0.7l-0.8-0.8l-0.7-0.9
					l-0.6-1l-0.5-1l-0.4-1.1l-0.3-1.1L27,245l-0.1-1.2v-1.6l0.1-1l0.1-1l0.2-1l0.3-0.9l0.4-0.9l0.5-0.8l0.6-0.8l0.6-0.7l0.7-0.6
					l0.8-0.6l0.8-0.5l0.9-0.4l0.9-0.3l1-0.2l1-0.1l1.5-0.1h1.3l1.2,0.1l1.2,0.3l0,0L42.3,232.9z M50.5,205.9h0.7h0.7h0.7l0.7,0.1
					l0.7,0.1l0.7,0.1l0.7,0.1l0.7,0.1l0.7,0.1l0.7,0.1l0.7,0.1l0.7,0.1l0.7,0.2l0.7,0.2l0.7,0.2l0.6,0.2l0.7,0.2l0.6,0.2l0.6,0.2
					l0.6,0.2l0.6,0.2l0.6,0.2l0.6,0.2l0.6,0.3l0.6,0.3l0.6,0.3l0.6,0.3l0.6,0.3l0.6,0.3l0.6,0.3l0.6,0.3l0.6,0.3l1.5,0.8l17.6,8.6
					l0.7,0.3l0.9,0.4l0.9,0.4l0.9,0.4l0.9,0.3l0.9,0.3l0.9,0.3l0.9,0.3l0.9,0.3l0.9,0.3l0.9,0.2l1,0.2l0.9,0.2l1,0.2l1,0.2l1,0.2
					l1,0.2l1,0.1l1,0.1l1,0.1l1,0.1l1,0.1l1,0.1l1,0.1h1h1h1h1h1h1h1h1l1-0.1l1-0.1l1-0.1l1-0.1l1-0.1l1-0.1l1-0.2l1-0.2l1-0.2
					l11.7-2.3l-11,8.7l-0.4,0.3l-0.4,0.3l-0.4,0.3l-0.5,0.3l-0.4,0.3l-0.5,0.3l-0.5,0.3l-0.5,0.3l-0.5,0.3l-0.5,0.3l-0.5,0.3
					l-0.5,0.3l-0.5,0.3l-0.5,0.3l-0.5,0.3l-0.5,0.3l-0.5,0.3l-0.5,0.3l-0.5,0.3l-0.5,0.3l-0.5,0.3l-0.5,0.3l-0.5,0.3l-0.5,0.3
					l-0.5,0.2l-0.5,0.2l-0.5,0.2L117,240l-0.5,0.2l-0.5,0.2l-0.5,0.2l-0.5,0.2l-0.5,0.2l-0.5,0.2l-0.5,0.2l-0.5,0.2l-0.4,0.1
					l-0.3,0.1l-0.5,0.1l-0.5,0.1l-0.5,0.1l-0.5,0.1l-0.5,0.1l-0.5,0.1L109,243l-0.5,0.1l-0.5,0.1l-0.5,0.1l-0.5,0.1l-0.5,0.1
					l-0.5,0.1l-0.5,0.1l-0.5,0.1l-0.5,0.1L104,244l-0.5,0.1l-0.5,0.1l-0.5,0.1l-0.5,0.1l-0.5,0.1l-0.5,0.1h-0.5H100h-0.5H99h-0.5H98
					h-0.5H97h-0.5H96h-0.5H95h-0.5h-0.7h-0.7h-0.7h-0.7H91h-0.7l-0.7-0.1l-0.7-0.1l-0.6-0.1l-0.7-0.1l-0.7-0.1l-0.6-0.1l-0.6-0.1
					l-0.6-0.1l-0.6-0.1l-0.6-0.1l-0.6-0.1l-0.6-0.1l-0.6-0.2l-0.6-0.2l-0.6-0.2l-0.6-0.2l-0.6-0.2l-0.6-0.2l-0.6-0.2l-0.6-0.2
					l-0.6-0.2l-0.6-0.2l-0.6-0.3l-0.6-0.2l-0.6-0.3l-0.6-0.3l-0.6-0.3l-0.6-0.3l-0.6-0.3l-0.6-0.3l-0.6-0.3l-0.6-0.3l-0.6-0.3
					l-0.6-0.3L63,234l-13.7-6.2l-0.2-0.1l-0.2-0.1l-0.2-0.1l-0.2-0.1l-0.2-0.1l-0.2-0.1l-0.2-0.1l-0.2-0.1l-0.2-0.1l-0.2-0.1
					l-0.2-0.1l-0.2-0.1l-0.2-0.1l-0.2-0.1l-0.2-0.1l-0.2-0.1l-0.2-0.1l-0.2-0.1l-0.2-0.1l-0.2-0.1l-0.2-0.1l-0.2-0.1l-0.2-0.1
					l-0.2-0.1l-0.2-0.1h-0.2l-0.2-0.1l-0.2-0.1h-0.2l-0.2-0.1h-0.2h-0.2l-0.2-0.1h-0.2h-0.2h-0.2h-0.2h-0.2h-0.2h-0.2L42,225
					l-0.9-0.2l-0.9-0.2l-0.9-0.2l-0.9-0.2l-0.9-0.2l-0.9-0.2l-0.9-0.1l-0.9-0.1l-0.9-0.1l-0.9-0.1l-0.9-0.1l-0.9-0.1l-0.9-0.1h-0.9
					h-0.9h-0.9h-0.9h-0.9h-0.9H24h-0.9l-0.9,0.1l-0.9,0.1l-0.9,0.1l-0.9,0.1l-0.9,0.1l-0.9,0.1l-0.9,0.1l-0.9,0.2l-0.9,0.2l-0.9,0.2
					l-0.9,0.2l-0.9,0.2l-0.9,0.2l-0.9,0.2l-0.9,0.3L9,225.8l-0.9,0.3l-0.9,0.3l-5.1,1.7l3.5-3.4l0.5-0.5l0.5-0.5l0.5-0.5l0.5-0.5
					l0.5-0.5l0.5-0.5l0.6-0.5l0.6-0.5l0.6-0.5l0.6-0.5l0.6-0.5l0.6-0.4l0.6-0.4l0.6-0.4l0.6-0.4l0.6-0.4l0.6-0.4l0.6-0.4l0.6-0.4
					l0.6-0.4l0.6-0.4l0.6-0.4l0.6-0.4l0.6-0.4l0.6-0.4l0.6-0.4l0.6-0.4l0.6-0.4l0.6-0.3l0.6-0.3l0.6-0.3l0.6-0.3l0.6-0.3l0.6-0.3
					l0.6-0.3l1-0.3l0.3-0.1l0.2-0.1l0.5-0.2l0.5-0.2l0.5-0.2l0.5-0.2l0.5-0.2l0.5-0.2l0.5-0.2l0.5-0.1l0.5-0.1l0.5-0.1L33,208
					l0.5-0.1l0.5-0.1l0.5-0.1l0.5-0.1l0.5-0.1l0.5-0.1l0.5-0.1l0.5-0.1l0.5-0.1L38,207l0.5-0.1l0.5-0.1l0.5-0.1l0.5-0.1l0.5-0.1
					l0.5-0.1l0.5-0.1l0.5-0.1l0.5-0.1L43,206h0.5H44h0.5H45l0,0h0.7h0.7h0.7h0.7h0.7h0.7h0.7l0,0L50.5,205.9z M111.8,242.2l0.5-0.2
					h0.1l0.2-0.1l0.5-0.1l0.5-0.2l0.5-0.2l-3.3,1.2l0.5-0.2l0,0L111.8,242.2z M348.1,213.6l1.1,0.5l1,0.6l0.9,0.7l0.8,0.8l0.7,0.9
					l0.6,1l0.5,1.1l0.4,1.1l0.3,1.2l0.1,1.2v1.3l-0.1,1.7l-0.1,1.1l-0.2,1.1l-0.3,1l-0.4,1l-0.5,0.9l-0.6,0.8l-0.7,0.8l-0.8,0.7
					l-0.8,0.6l-0.9,0.5l-0.9,0.5l-1,0.4l-1,0.3l-1.1,0.2H344l-1.2-0.1l-1.2-0.2l-1.1-0.3l-1.1-0.4l-1-0.5l-1-0.6l-0.9-0.7l-0.8-0.8
					l-0.7-0.9l-0.6-1l-0.5-1l-0.4-1.1l-0.3-1.1l-0.2-1.2l-0.1-1.2v-1.6l0.1-1l0.1-1l0.2-1l0.3-0.9l0.4-0.9l0.5-0.8l0.6-0.8l0.6-0.7
					l0.7-0.6l0.8-0.6l0.8-0.5l0.9-0.4l0.9-0.3l1-0.2l1-0.1l1.5-0.1h1.3l1.2,0.1l1.2,0.3l0,0L348.1,213.6z M27.7,209.6l-0.4,0.2
					l-0.2,0.1l-0.5,0.2l-0.5,0.2l-0.5,0.2l-0.5,0.2l4.5-1.9l-0.7,0.3l-0.7,0.3l0,0L27.7,209.6z M34.3,123.4H35h0.7h0.7h0.7l0.7,0.1
					l0.7,0.1l0.7,0.1l0.7,0.1l0.7,0.1h0.3h0.2l0.5,0.1l0.5,0.1l0.5,0.1l0.5,0.1l0.5,0.1l0.5,0.1l0.5,0.1l0.5,0.1l0.5,0.1l0.5,0.1
					l0.5,0.1l0.5,0.1l0.5,0.1l0.5,0.1l0.5,0.2l0.5,0.2l0.5,0.2l0.5,0.2l0.5,0.2l0.5,0.2l0.5,0.2l0.5,0.2l0.5,0.2l0.5,0.2l0.5,0.2
					l0.5,0.2l0.5,0.2l0.5,0.2l0.5,0.2l0.5,0.2l0.5,0.2l0.5,0.2l0.5,0.2l0.5,0.2l0.5,0.2l0,0l0.6,0.3l0.6,0.3l0.6,0.3l0.6,0.3
					l0.6,0.4l0.6,0.4l0.6,0.4l0.6,0.4l0.6,0.4l0.6,0.4l0.6,0.4l0.6,0.4l0.5,0.4l0.5,0.4l0.5,0.4l0.5,0.4l0.5,0.5l0.5,0.5l0.5,0.5
					l0.5,0.5l0.5,0.5l0.5,0.5l0.5,0.5l0.5,0.5l0.5,0.5l0.5,0.5l0.4,0.5l0.4,0.5L74,142l0.4,0.5l0.4,0.6l0.4,0.5l0.4,0.6l0.4,0.6
					l0.4,0.6l0.4,0.6l0.4,0.6l0.4,0.6l0.4,0.6l0.3,0.6l0.8,1.5l9.9,16.8l0.4,0.6l0.6,0.8l0.6,0.8l0.6,0.8l0.6,0.8l0.6,0.8L93,172
					l0.6,0.7l0.6,0.7l0.7,0.7l0.7,0.7l0.7,0.7l0.7,0.7l0.7,0.7l0.7,0.7l0.7,0.7l0.7,0.6l0.7,0.6l0.7,0.6l0.8,0.6l0.8,0.6l0.8,0.6
					l0.8,0.6l0.8,0.6l0.8,0.6l0.8,0.5l0.8,0.5l0.8,0.5l0.8,0.5l0.8,0.5l0.8,0.5l0.9,0.5l0.9,0.5l0.9,0.4l0.9,0.4l0.9,0.4l0.9,0.4
					l0.9,0.4l0.9,0.4l0.9,0.4l0.9,0.4l11.2,4.2l-13.9,1.6l-0.6,0.1l-0.6,0.1h-0.6h-0.6h-0.6h-0.6h-0.6h-0.6h-0.6h-0.6h-0.6h-0.6
					h-0.6h-0.6h-0.6h-0.6h-0.6h-0.6h-0.6h-0.6h-0.6h-0.6h-0.6h-0.6h-0.6h-0.6l-0.6-0.1l-0.6-0.1l-0.6-0.1l-0.6-0.1l-0.6-0.1
					l-0.6-0.1l-0.5-0.1l-0.6-0.1L98,196l-0.6-0.1l-0.4-0.1l-0.3-0.1l-0.5-0.1l-0.5-0.1l-0.5-0.1l-0.5-0.1l-0.5-0.1l-0.5-0.1
					l-0.5-0.1l-0.5-0.1l-0.5-0.1l-0.5-0.2l-0.5-0.2l-0.5-0.2l-0.5-0.2l-0.5-0.2l-0.5-0.2l-0.5-0.2l-0.5-0.2l-0.4-0.2l-0.5-0.2
					l-0.4-0.2l-0.4-0.2l-0.4-0.2l-0.4-0.2l-0.4-0.2l-0.4-0.2l-0.4-0.2l-0.4-0.2L84,191l-0.4-0.2l-0.4-0.2l-0.4-0.2l-0.4-0.2L82,190
					l-0.4-0.2l-0.4-0.2l-0.4-0.3l-0.6-0.3l-0.6-0.4L79,188l-0.6-0.4l-0.5-0.4l-0.5-0.4l-0.5-0.4l-0.5-0.4l-0.5-0.4l-0.5-0.4
					l-0.5-0.4l-0.5-0.4l-0.5-0.4l-0.5-0.4l-0.5-0.4l-0.5-0.5l-0.5-0.5l-0.5-0.5l-0.5-0.5l-0.5-0.5l-0.5-0.5l-0.4-0.5l-0.4-0.5
					l-0.4-0.5l-0.4-0.5l-0.4-0.5l-0.4-0.5l-0.4-0.5l-0.4-0.5l-0.4-0.5l-0.4-0.5l-0.4-0.5l-0.4-0.6l-0.4-0.6l-0.4-0.6l-0.3-0.6
					l-0.3-0.6l-0.3-0.6l-0.3-0.6l-0.3-0.6l-3.5-6.7l-8.4-12.4l-0.1-0.1l-0.1-0.1l-0.1-0.1l-0.1-0.1l-0.1-0.1l-0.1-0.1l-0.1-0.1
					l-0.1-0.1l-0.1-0.1l-0.1-0.1l-0.1-0.1l-0.1-0.1l-0.1-0.1l-0.1-0.1l-0.1-0.1l-0.1-0.1l-0.1-0.1l-0.1-0.1l-0.1-0.1l-0.1-0.1
					l-0.1-0.1l-0.1-0.1l-0.1-0.1l-0.1-0.1l-0.1-0.1l-0.1-0.1L48,147l-0.1-0.1l-0.1-0.1l-0.1-0.1l-0.1-0.1l-0.1-0.1l-0.1-0.1
					l-0.1-0.1l-0.1-0.1l-0.1-0.1L47,146l-0.1-0.1l-0.1-0.1l-0.1-0.1l-0.6-0.7l-0.6-0.6l-0.6-0.6l-0.6-0.6l-0.7-0.6l-0.7-0.6
					l-0.7-0.6l-0.7-0.6l-0.7-0.6l-0.7-0.6l-0.7-0.6l-0.7-0.5L38,138l-0.7-0.5l-0.7-0.5l-0.8-0.5L35,136l-0.8-0.5l-0.8-0.5l-0.8-0.5
					l-0.8-0.4l-0.8-0.4l-0.8-0.4l-0.8-0.4l-0.8-0.4l-0.8-0.4l-0.8-0.4l-0.8-0.4l-0.8-0.3l-0.8-0.3l-0.8-0.3l-0.9-0.3l-0.9-0.3
					l-0.9-0.3l-0.9-0.3l-0.9-0.3l-0.9-0.2l-0.9-0.2l-0.9-0.2l-0.9-0.2l-5.2-1.2l4.8-1.1l0.7-0.2l0.7-0.1l0.7-0.1l0.7-0.1l0.7-0.1
					l0.7-0.1l0.7-0.1l0.7-0.1l0.7-0.1l0.7-0.1l0.7-0.1l0.7-0.1l0.7-0.1l0.7-0.1l0.7-0.1l0.7-0.1h0.7h0.7h0.7h0.7H30h0.7h0.7h0.7h0.7
					h0.7l0,0L34.3,123.4z M96.9,195.8L96.9,195.8h0.3l0.5,0.1l0.5,0.1l0.5,0.1l-3.4-0.7l0.5,0.1l0.5,0.1l0,0L96.9,195.8z M276.9,186
					l-0.7-0.1h-0.4h-0.3l-0.5-0.1l-0.5-0.1l-0.5-0.1l-0.5-0.1l4.8,0.8l-0.7-0.1l0,0L276.9,186z M284.7,137h0.7h0.7l0.7,0.1l0.7,0.1
					l0.7,0.1l0.7,0.1l0.7,0.1l0.7,0.1l0.7,0.1l0.7,0.1l0.7,0.1l0.7,0.1l0.7,0.2l0.7,0.2l0.7,0.2l0.6,0.2l0.7,0.2l0.6,0.2l0.6,0.2
					l0.6,0.2l0.6,0.2l0.6,0.2l0.6,0.2l0.6,0.3l0.6,0.3l0.6,0.3l0.6,0.3l0.6,0.3l0.6,0.3l0.6,0.3l0.6,0.3l0.6,0.3l1.5,0.8l17.6,8.6
					l0.7,0.3l0.9,0.4l0.9,0.4l0.9,0.3l0.9,0.3l0.9,0.3l0.9,0.3l0.9,0.3l0.9,0.3l0.9,0.3l0.9,0.2l1,0.2l0.9,0.2l1,0.2l1,0.2l1,0.2
					l1,0.2l1,0.1l1,0.1l1,0.1l1,0.1l1,0.1l1,0.1l1,0.1h1h1h1h1h1h1h1h1l1-0.1l1-0.1l1-0.1l1-0.1l1-0.1l1-0.1l1-0.2l1-0.2l1-0.2
					l11.7-2.3l-11,8.7l-0.4,0.3l-0.4,0.3l-0.4,0.3l-0.5,0.3l-0.4,0.3l-0.5,0.3l-0.5,0.3l-0.5,0.3l-0.5,0.3l-0.5,0.3l-0.5,0.3
					l-0.5,0.3l-0.5,0.3l-0.5,0.3l-0.5,0.3l-0.5,0.3l-0.5,0.3l-0.5,0.3l-0.5,0.3l-0.5,0.3l-0.5,0.3l-0.5,0.3l-0.5,0.3l-0.5,0.2
					l-0.5,0.3l-0.5,0.2l-0.5,0.2l-0.5,0.2l-0.5,0.2l-0.5,0.2l-0.5,0.2l-0.5,0.2l-0.5,0.2l-0.5,0.2l-0.5,0.2l-0.5,0.2l-0.4,0.1
					l-0.3,0.1l-0.5,0.1l-0.5,0.1l-0.5,0.1l-0.5,0.1l-0.5,0.1l-0.5,0.1l-0.5,0.1l-0.5,0.1l-0.5,0.1l-0.5,0.1l-0.5,0.1l-0.5,0.1
					l-0.5,0.1l-0.5,0.1l-0.5,0.1l-0.5,0.1l-0.5,0.1l-0.5,0.1l-0.5,0.1l-0.5,0.1l-0.5,0.1l-0.5,0.1l-0.5,0.1h-0.5h-0.5h-0.5h-0.5
					h-0.5h-0.5h-0.5h-0.5h-0.5h-0.5h-0.5h-0.5h-0.5h-0.7h-0.7h-0.7h-0.7h-0.7h-0.7l-0.7-0.1l-0.7-0.1l-0.6-0.1l-0.7-0.1l-0.7-0.1
					l-0.6-0.1l-0.6-0.1l-0.6-0.1l-0.6-0.1l-0.6-0.1l-0.6-0.1l-0.6-0.1l-0.6-0.2l-0.6-0.2l-0.6-0.2l-0.6-0.2l-0.6-0.2l-0.6-0.2
					L313,173l-0.6-0.2l-0.6-0.2l-0.6-0.2l-0.6-0.2l-0.6-0.3l-0.6-0.3l-0.6-0.3l-0.6-0.3l-0.6-0.3l-0.6-0.3l-0.6-0.3l-0.6-0.3
					l-0.6-0.3l-0.6-0.3l-0.6-0.3l-6.5-3.9l-13.7-6.2l-0.2-0.1l-0.2-0.1l-0.2-0.1l-0.2-0.1l-0.2-0.1l-0.2-0.1l-0.2-0.1l-0.2-0.1
					l-0.2-0.1l-0.2-0.1l-0.2-0.1l-0.2-0.1l-0.2-0.1l-0.2-0.1l-0.2-0.1l-0.2-0.1l-0.2-0.1l-0.2-0.1l-0.2-0.1l-0.2-0.1l-0.2-0.1
					l-0.2-0.1l-0.2-0.1l-0.2-0.1l-0.2-0.1l-0.2-0.1h-0.2l-0.2-0.1H278l-0.2-0.1h-0.2h-0.2l-0.2-0.1H277h-0.2h-0.2h-0.2h-0.2H276
					h-0.2l-0.9-0.2l-0.9-0.2l-0.9-0.2l-0.9-0.2l-0.9-0.2l-0.9-0.2l-0.9-0.2l-0.9-0.1l-0.9-0.1l-0.9-0.1l-0.9-0.1L265,154l-0.9-0.1
					l-0.9-0.1h-0.9h-0.9h-0.9h-0.9h-0.9h-0.9h-0.9H256l-0.9,0.1l-0.9,0.1l-0.9,0.1l-0.9,0.1l-0.9,0.1l-0.9,0.1l-0.9,0.1l-0.9,0.2
					l-0.9,0.2l-0.9,0.2l-0.9,0.2l-0.9,0.2l-0.9,0.2l-0.9,0.2l-0.9,0.2l-0.9,0.3l-0.9,0.3l-0.9,0.3l-5.1,1.7l3.5-3.4l0.5-0.5l0.5-0.5
					l0.5-0.5l0.5-0.5l0.5-0.5l0.5-0.5l0.6-0.5l0.6-0.5l0.6-0.5l0.6-0.5l0.6-0.5l0.6-0.5l0.6-0.4l0.6-0.4l0.6-0.4l0.6-0.4l0.6-0.4
					l0.6-0.4l0.6-0.4l0.6-0.4l0.6-0.4l0.6-0.4l0.6-0.4l0.6-0.4l0.6-0.4l0.6-0.4l0.6-0.4l0.6-0.4l0.6-0.3l0.6-0.4l0.6-0.3l0.6-0.3
					l0.6-0.3l0.6-0.3l0.6-0.3l0.7-0.3l0.3-0.1l0.2-0.1l0.5-0.2l0.5-0.2l0.5-0.2l0.5-0.2l0.5-0.2l0.5-0.2l0.5-0.2l0.5-0.1l0.5-0.1
					l0.5-0.1l0.5-0.1l0.5-0.1l0.5-0.1l0.5-0.1l0.5-0.1l0.5-0.1l0.5-0.1l0.5-0.1l0.5-0.1l0.5-0.1l0.5-0.1l0.5-0.1l0.5-0.1l0.5-0.1
					l0.5-0.1l0.5-0.1l0.5-0.1l0.5-0.1l0.5-0.1h0.5l0.5-0.1h0.5h0.5h0.5h0.5h0.1h0.7h0.7h0.7h0.7h0.7h0.7h0.7l0,0L284.7,137z
					 M346.1,173.3l0.5-0.2l0.1-0.1l0.2-0.1l0.5-0.1l0.5-0.2l0.5-0.2l-3.3,1.2l0.5-0.2l0,0L346.1,173.3z M38.4,147.6l1.1,0.5l1,0.6
					l0.9,0.7l0.8,0.8l0.7,0.9l0.6,1l0.5,1.1l0.4,1.1l0.3,1.2l0.1,1.2v1.3l-0.1,1.7l-0.1,1.1l-0.2,1.1l-0.3,1l-0.4,1l-0.5,0.9
					l-0.6,0.8l-0.7,0.8l-0.8,0.7l-0.8,0.6l-0.9,0.5l-0.9,0.5l-1,0.4l-1,0.3l-1.1,0.2h-1.1l-1.2-0.1l-1.2-0.2l-1.1-0.3l-1.1-0.4
					l-1-0.5l-1-0.6l-0.9-0.7L26,166l-0.7-0.9l-0.6-1l-0.5-1l-0.4-1.1l-0.3-1.1l-0.2-1.2l-0.1-1.2v-1.6l0.1-1l0.1-1l0.2-1l0.3-0.9
					l0.4-0.9l0.5-0.8l0.6-0.8l0.6-0.7l0.7-0.6l0.8-0.6l0.8-0.5l0.9-0.4l0.9-0.3l1-0.2l1-0.1l1.5-0.1h1.3l1.2,0.1l1.2,0.3l0,0
					L38.4,147.6z M71.6,44.9l0.7,0.2l0.7,0.2l0.7,0.2l0.7,0.3l0.7,0.3l0.7,0.3l0.7,0.3l0.7,0.3l0.7,0.3l0.7,0.3l0.7,0.3l0.7,0.3
					l0.7,0.3l0.6,0.3l0.6,0.3l0.6,0.3l0.6,0.3l0.6,0.3l0.6,0.3l0.6,0.4l0.6,0.4l0.6,0.4l0.6,0.4l0.6,0.4l0.6,0.4l0.6,0.4l0.6,0.4
					l0.6,0.4l0.6,0.4l0.6,0.4l0.6,0.4l0.6,0.4l0.6,0.4l0.6,0.4l0.3,0.2l0.2,0.2l0.4,0.3l0.4,0.3l0.4,0.3l0.4,0.4l0.4,0.3l0.4,0.4
					l0.4,0.4l0.4,0.4l0.4,0.4l0.4,0.4l0.4,0.4l0.3,0.4l0.3,0.4l0.3,0.4l0.3,0.4l0.3,0.4l0.3,0.4l0.3,0.4l0.3,0.4l0.3,0.4l0.3,0.4
					l0.3,0.4l0.3,0.4l0.3,0.4l0.3,0.4l0.3,0.4l0.3,0.4l0.3,0.4l0.3,0.4l0.3,0.4l0.3,0.4l0.3,0.4l0.3,0.4l0.3,0.4l0.3,0.4l0,0
					l0.4,0.6l0.3,0.6l0.3,0.6l0.3,0.6l0.3,0.6l0.3,0.6l0.3,0.6l0.3,0.6l0.3,0.6l0.3,0.6l0.3,0.6l0.3,0.6l0.3,0.6l0.2,0.6l0.2,0.6
					l0.2,0.6l0.2,0.6l0.2,0.6l0.2,0.7l0.2,0.6l0.2,0.7l0.2,0.7l0.2,0.7l0.2,0.7l0.1,0.7l0.1,0.7l0.1,0.7L112,88l0.1,0.7l0.1,0.7
					l0.1,0.7l0.1,0.7l0.1,0.7l0.1,0.7v0.7v0.7v0.7V95v0.7v0.7v1.7l0.7,19.6l0.1,0.7l0.1,1l0.1,1l0.1,1l0.1,1l0.2,1l0.2,1l0.2,1
					l0.2,1l0.2,1l0.2,1l0.2,1l0.3,0.9l0.3,0.9l0.3,0.9l0.3,0.9l0.3,0.9l0.3,0.9l0.3,0.9l0.3,0.9l0.4,0.9l0.4,0.9l0.4,0.9l0.4,0.9
					l0.4,0.9l0.4,0.9l0.4,0.9l0.5,0.9l0.5,0.9l0.5,0.8l0.5,0.8l0.5,0.8l0.5,0.8l0.5,0.8l0.6,0.8l0.6,0.8l0.6,0.8l0.6,0.8l0.6,0.8
					l0.6,0.8l0.6,0.8l7.6,9.2l-12.8-5.6l-0.5-0.2l-0.5-0.2l-0.5-0.2l-0.5-0.2l-0.5-0.2l-0.5-0.2l-0.5-0.2l-0.5-0.3l-0.5-0.3
					l-0.5-0.3l-0.5-0.3l-0.5-0.3l-0.5-0.3l-0.5-0.3l-0.5-0.3l-0.5-0.3l-0.5-0.3l-0.5-0.3l-0.5-0.3l-0.5-0.3l-0.5-0.3l-0.5-0.3
					l-0.5-0.3l-0.5-0.3l-0.5-0.3l-0.5-0.3l-0.4-0.3l-0.5-0.3l-0.4-0.3l-0.4-0.3l-0.4-0.3l-0.4-0.3l-0.4-0.3l-0.4-0.4l-0.4-0.4
					l-0.4-0.4l-0.3-0.3l-0.2-0.2l-0.3-0.3l-0.3-0.3l-0.3-0.3l-0.3-0.3l-0.3-0.4l-0.3-0.4l-0.3-0.4l-0.3-0.4l-0.3-0.4L102,143
					l-0.3-0.4l-0.3-0.4l-0.3-0.4l-0.3-0.4l-0.3-0.4l-0.3-0.4l-0.3-0.4l-0.3-0.4l-0.3-0.4L99,139l-0.3-0.4l-0.3-0.4l-0.3-0.4
					l-0.3-0.4l-0.3-0.4l-0.3-0.4l-0.3-0.4l-0.3-0.4l-0.3-0.4L96,135l-0.2-0.4l-0.2-0.4l-0.2-0.4l-0.2-0.4L95,133l-0.2-0.4l-0.3-0.6
					l-0.3-0.6l-0.3-0.6l-0.3-0.6l-0.3-0.6L93,129l-0.3-0.6l-0.2-0.6l-0.2-0.6l-0.2-0.6l-0.2-0.6l-0.2-0.6l-0.2-0.6l-0.2-0.6
					l-0.2-0.6l-0.2-0.6l-0.2-0.6l-0.2-0.6l-0.2-0.6l-0.1-0.6l-0.1-0.6l-0.1-0.6l-0.1-0.6l-0.1-0.6l-0.1-0.6l-0.1-0.6l-0.1-0.7
					l-0.1-0.6l-0.1-0.7l-0.1-0.7v-0.7v-0.7v-0.7v-0.7v-0.7v-0.7v-0.7v-0.7V108v-0.7l0.4-7.6l-1-15v-0.2v-0.2v-0.2v-0.2v-0.2v-0.2
					v-0.2v-0.2v-0.2v-0.2v-0.2v-0.2v-0.2v-0.2v-0.2v-0.2v-0.2v-0.2v-0.2v-0.2v-0.2v-0.2v-0.2v-0.2v-0.2v-0.2v-0.2v-0.2v-0.2v-0.2
					v-0.2v-0.2v-0.2v-0.2v-0.2v-0.2v-0.2v-0.2v-0.2v-0.2l-0.2-0.9l-0.2-0.9L88,74l-1.5,0l-0.3-0.9l-0.3-0.9l-0.3-0.9l-0.3-0.9
					L85,69.7l-0.3-0.8L84.4,68L84,67.2l-0.4-0.8l-0.4-0.8l-0.4-0.8L82.4,64L82,63.2l-0.4-0.8l-0.4-0.8l-0.4-0.8L80.3,60l-0.5-0.8
					l-0.5-0.8l-0.5-0.8l-0.5-0.7l-0.5-0.7l-0.5-0.7l-0.5-0.7L76.2,54l-0.6-0.7L75,52.6l-0.6-0.7l-0.6-0.7l-0.6-0.7l-0.6-0.7L72,49.1
					l-0.6-0.7l-0.6-0.6l-0.6-0.6l-0.7-0.6L65.6,43l4.7,1.5l0.7,0.2l0,0L71.6,44.9z M342.5,127.7l1.1,0.5l1,0.6l0.9,0.7l0.8,0.8
					l0.7,0.9l0.6,1l0.5,1.1l0.4,1.1l0.3,1.2l0.1,1.2v1.3l-0.1,1.7l-0.1,1.1l-0.2,1.1l-0.3,1l-0.4,1l-0.5,0.9l-0.6,0.8l-0.7,0.8
					l-0.8,0.7l-0.8,0.6l-0.9,0.6l-0.9,0.5l-1,0.4l-1,0.3l-1.1,0.2h-1.1l-1.2-0.1l-1.2-0.2l-1.1-0.3l-1.1-0.4l-1-0.5l-1-0.6l-0.9-0.7
					l-0.8-0.8l-0.7-0.9l-0.6-1l-0.5-1l-0.4-1.1l-0.3-1.1l-0.2-1.2l-0.1-1.2V137l0.1-1l0.1-1l0.2-1l0.3-0.9l0.4-0.9l0.5-0.8l0.6-0.8
					l0.6-0.7l0.7-0.6l0.8-0.6l0.8-0.5l0.9-0.4l0.9-0.3l1-0.2l1-0.1l1.5-0.1h1.3l1.2,0.1l1.2,0.3l0,0L342.5,127.7z M105.4,146.7
					l0.1,0.1l0.1,0.1l0.4,0.3l0.4,0.3l0.4,0.3l-2.6-2.3l0.4,0.4l0.4,0.4l0,0L105.4,146.7z M261.9,140.7l-0.4,0.2l-0.2,0.1l-0.5,0.2
					l-0.5,0.2l-0.5,0.2l-0.5,0.2l4.5-1.9l-0.7,0.3l-0.7,0.3l0,0L261.9,140.7z M161.1,5.9l0.5,0.5l0.5,0.6l0.5,0.6l0.5,0.6l0.5,0.6
					l0.5,0.6l0.5,0.6l0.4,0.6l0.4,0.6l0.4,0.6l0.4,0.6l0.4,0.6l0.4,0.6l0.4,0.6l0.4,0.6l0.4,0.6l0.4,0.6l0.4,0.6l0.4,0.6l0.4,0.6
					l0.4,0.6l0.4,0.6l0.4,0.6l0.4,0.6l0.4,0.6l0.3,0.6l0.3,0.6l0.3,0.6l0.3,0.6l0.3,0.6l0.3,0.6l0.3,0.7l0.3,0.7l0.3,0.7l0.1,0.3
					l0.1,0.2l0.2,0.5l0.2,0.5l0.2,0.5l0.2,0.5l0.1,0.5l0.1,0.5l0.1,0.5l0.1,0.5l0.1,0.5l0.1,0.5l0.1,0.5l0.1,0.5l0.1,0.5l0.1,0.5
					l0.1,0.5l0.1,0.5l0.1,0.5l0.1,0.5l0.1,0.5l0.1,0.5l0.1,0.5l0.1,0.5l0.1,0.5l0.1,0.5l0.1,0.5l0.1,0.5l0.1,0.5V41l0.1,0.5V42v0.5
					V43v0.5V44v0.5v0.1v0.7V46v0.7v0.7v0.7v0.7v0.7v0.7v0.7l-0.1,0.7l-0.1,0.7l-0.1,0.7l-0.1,0.7l-0.1,0.7l-0.1,0.7l-0.1,0.7
					l-0.1,0.7l-0.1,0.7l-0.1,0.7l-0.2,0.7l-0.2,0.7l-0.2,0.6l-0.2,0.7l-0.2,0.7l-0.2,0.6l-0.2,0.6l-0.2,0.6l-0.2,0.6l-0.2,0.6
					l-0.3,0.6l-0.3,0.6l-0.3,0.6l-0.3,0.6l-0.3,0.6l-0.3,0.6l-0.3,0.6l-0.3,0.6l-0.3,0.6l-0.3,0.6l-0.3,0.6l-0.9,1.5l-9,17.4
					l-0.3,0.6l-0.4,0.9l-0.4,0.9l-0.4,0.9l-0.4,0.9l-0.3,0.9l-0.3,0.9l-0.3,0.9l-0.3,0.9l-0.3,0.9l-0.3,0.9l-0.3,0.9l-0.2,0.9
					l-0.2,1l-0.2,0.9l-0.2,1l-0.2,1l-0.2,1l-0.2,1l-0.1,1l-0.1,1l-0.1,1l-0.1,1l-0.1,1l-0.1,1v1v1v1v1v1v1v1v1l0.1,1l0.1,1l0.1,1
					l0.1,1l0.1,1l0.1,1l0.1,1l0.2,1l2.1,11.8l-8.4-11.2l-0.3-0.4l-0.3-0.5l-0.3-0.4l-0.3-0.5l-0.3-0.5l-0.3-0.5l-0.3-0.5l-0.3-0.5
					l-0.3-0.5l-0.3-0.5l-0.3-0.5l-0.3-0.5l-0.3-0.5l-0.3-0.5l-0.3-0.5l-0.3-0.5l-0.3-0.5l-0.3-0.5l-0.3-0.5l-0.3-0.5l-0.3-0.5
					l-0.2-0.5l-0.2-0.5l-0.2-0.5l-0.2-0.5l-0.2-0.5l-0.2-0.5l-0.2-0.5l-0.2-0.5l-0.2-0.5l-0.2-0.5l-0.2-0.5l-0.2-0.5l-0.2-0.5
					l-0.2-0.5l-0.2-0.5l-0.1-0.4l-0.1-0.3l-0.1-0.5l-0.1-0.5l-0.1-0.5l-0.1-0.5l-0.1-0.5l-0.1-0.5l-0.1-0.5l-0.1-0.5l-0.1-0.5
					l-0.1-0.5l-0.1-0.5l-0.1-0.5l-0.1-0.5l-0.1-0.5l-0.1-0.5l-0.1-0.5l-0.1-0.5l-0.1-0.5l-0.1-0.5l-0.1-0.5l-0.1-0.5v-0.5v-0.5v-0.5
					v-0.5v-0.5v-0.5v-0.5v-0.5v-0.5v-0.5v-0.5v-0.5v-0.5v-0.5v-0.5v-0.7v-0.7v-0.7v-0.7l0.1-0.7l0.1-0.7l0.1-0.7l0.1-0.7l0.1-0.7
					l0.1-0.6l0.1-0.6l0.1-0.6l0.1-0.6l0.1-0.6l0.1-0.6l0.2-0.6l0.2-0.6l0.2-0.6l0.2-0.6l0.2-0.6l0.2-0.6l0.2-0.6l0.2-0.6l0.2-0.6
					l0.2-0.6l0.2-0.6l0.2-0.6l0.3-0.6l0.3-0.6l0.3-0.6l0.3-0.6l0.3-0.6l0.3-0.6l0.3-0.6l0.3-0.6l0.3-0.6l0.3-0.6l0.3-0.6l0.3-0.6
					l0.3-0.6l4-6.4l6.5-13.5l0.1-0.2l0.1-0.2l0.1-0.2l0.1-0.2l0.1-0.2l0.1-0.2l0.1-0.2l0.1-0.2l0.1-0.2L157,47l0.1-0.2l0.1-0.2
					l0.1-0.2l0.1-0.2l0.1-0.2l0.1-0.2l0.1-0.2l0.1-0.2l0.1-0.2L158,45l0.1-0.2l0.1-0.2l0.1-0.2l0.1-0.2l0.1-0.2l0.1-0.2l0.1-0.2
					l0.1-0.2l0.1-0.2V43l0.1-0.2l0.1-0.2v-0.2l0.1-0.2V42l0.1-0.2v-0.2v-0.2l0.1-0.2V41l0.2-0.9l0.2-0.9l0.2-0.9l0.2-0.9l0.2-0.9
					l0.2-0.9l0.2-0.9l0.2-0.9l0.1-0.9l0.1-0.9l0.1-0.9l0.1-0.9l0.1-0.9l0.1-0.9l0.1-0.9v-0.9v-0.9v-0.9v-0.9V23v-0.9v-0.9v-0.9
					l-0.1-0.9l-0.1-0.9l-0.1-0.9l-0.1-0.9l-0.1-0.9l-0.1-0.9L161,14l-0.1-0.9l-0.2-0.9l-0.2-0.9l-0.2-0.9l-0.2-0.9l-0.2-0.9L159.2,9
					L159,8.1l-0.3-0.9l-0.3-0.9l-1.6-5.1l3.3,3.6l0.5,0.5l0,0L161.1,5.9z M331,69.4l-0.2,0.7l-0.2,0.7l-0.2,0.7l-0.2,0.7l-0.2,0.7
					l-0.2,0.7l-0.2,0.7l-0.3,0.7l-0.3,0.7l-0.3,0.7l-0.3,0.7l-0.3,0.7l-0.3,0.7l-0.3,0.7l-0.3,0.7l-0.3,0.7l-0.3,0.6l-0.3,0.6
					l-0.3,0.6l-0.3,0.6l-0.3,0.6l-0.3,0.6l-0.3,0.6l-0.4,0.6L324,86l-0.4,0.6l-0.4,0.6l-0.4,0.6l-0.4,0.6L322,89l-0.4,0.6l-0.4,0.6
					l-0.4,0.6l-0.4,0.6l-0.2,0.3l-0.2,0.2l-0.3,0.4l-0.3,0.4l-0.3,0.4l-0.3,0.4l-0.3,0.4l-0.3,0.4l-0.3,0.4l-0.4,0.4l-0.4,0.4
					l-0.4,0.4l-0.4,0.4l-0.4,0.4l-0.4,0.4l-0.4,0.4l-0.4,0.4l-0.4,0.3l-0.4,0.3l-0.4,0.3l-0.4,0.3l-0.4,0.3l-0.4,0.3l-0.4,0.3
					l-0.4,0.3l-0.4,0.3l-0.4,0.3l-0.4,0.3l-0.4,0.3l-0.4,0.3l-0.4,0.3l-0.4,0.3l-0.4,0.3L308,103l-0.4,0.3l-0.4,0.3l-0.4,0.3l0,0
					l-0.6,0.4l-0.6,0.4l-0.6,0.4l-0.6,0.3l-0.6,0.3l-0.6,0.3l-0.6,0.3l-0.6,0.3l-0.6,0.3l-0.6,0.3l-0.6,0.3l-0.6,0.3l-0.6,0.3
					l-0.6,0.3l-0.6,0.2l-0.6,0.2l-0.6,0.2l-0.6,0.2l-0.6,0.2l-0.6,0.2l-0.6,0.2l-0.7,0.2l-0.6,0.2l-0.7,0.2l-0.7,0.2l-0.7,0.2
					l-0.7,0.1l-0.7,0.1l-0.7,0.1l-0.7,0.1l-0.7,0.1l-0.7,0.1l-0.7,0.1l-0.7,0.1l-0.7,0.1l-0.7,0.1h-0.7h-0.7h-0.7H281h-1.7
					l-19.6,1.4l-0.7,0.1l-1,0.1l-1,0.1l-1,0.1l-1,0.2l-1,0.2l-1,0.2l-1,0.2l-1,0.2l-0.9,0.2l-0.9,0.3l-0.9,0.3l-0.9,0.3l-0.9,0.3
					l-0.9,0.3l-0.9,0.3l-0.9,0.3l-0.9,0.3l-0.9,0.4l-0.9,0.4l-0.9,0.4l-0.9,0.4l-0.9,0.4l-0.9,0.4l-0.9,0.4l-0.9,0.5l-0.9,0.5
					l-0.9,0.5l-0.8,0.5l-0.8,0.5l-0.8,0.5l-0.8,0.5l-0.8,0.5l-0.8,0.6l-0.8,0.6l-0.8,0.6l-0.8,0.6l-0.8,0.6l-0.8,0.6l-0.8,0.6
					l-0.7,0.6l-9,7.8l5.2-13l0.2-0.5l0.2-0.5l0.2-0.5l0.2-0.5l0.2-0.5l0.2-0.5l0.2-0.5l0.2-0.5l0.2-0.5l0.2-0.5l0.3-0.5l0.3-0.5
					l0.3-0.5l0.3-0.5l0.3-0.5l0.3-0.5l0.3-0.5l0.3-0.5l0.3-0.5l0.3-0.5l0.3-0.5l0.3-0.5l0.3-0.5l0.3-0.5l0.3-0.5l0.3-0.5l0.3-0.5
					l0.3-0.5l0.3-0.5l0.3-0.5l0.3-0.5l0.3-0.4l0.3-0.4l0.3-0.4l0.3-0.4l0.4-0.4l0.3-0.3l0.2-0.2l0.3-0.4l0.3-0.4l0.3-0.3l0.3-0.4
					l0.3-0.3l0.3-0.3l0.4-0.3l0.3-0.3l0.4-0.3l0.4-0.3l0.4-0.3l0.4-0.3l0.4-0.3l0.4-0.3l0.4-0.3l0.4-0.3l0.4-0.3l0.4-0.3l0.4-0.3
					l0.4-0.3l0.4-0.3l0.4-0.3l0.4-0.3l0.4-0.3l0.4-0.3l0.4-0.3l0.4-0.3l0.4-0.3l0.4-0.3l0.4-0.3l0.4-0.3l0.4-0.3l0.4-0.3l0.4-0.2
					l0.4-0.3l0.4-0.2l0.6-0.3l0.6-0.3l0.6-0.3l0.6-0.3l0.6-0.3l0.6-0.3l0.6-0.3l0.6-0.3l0.6-0.3l0.6-0.3l0.6-0.2l0.6-0.2l0.6-0.2
					l0.6-0.2l0.6-0.2l0.6-0.2l0.6-0.2l0.6-0.2l0.6-0.2l0.6-0.2l0.6-0.2l0.6-0.1l0.6-0.1l0.6-0.1l0.6-0.1l0.6-0.1l0.6-0.1l0.7-0.1
					l0.6-0.1l0.7-0.1l0.7-0.1l0.7-0.1l0.7-0.1h0.7h0.7h0.7h0.7h0.7h0.7h0.7l7.6,0.1l14.9-1.4h0.2h0.2h0.2h0.2h0.2h0.2h0.2h0.2h0.2
					h0.2h0.2h0.2h0.2h0.2h0.2h0.2h0.2h0.2h0.2h0.2h0.2h0.2h0.2h0.2h0.2h0.2h0.2h0.2h0.2h0.2h0.2h0.2h0.2h0.2h0.2h0.2h0.2h0.2h0.2
					h0.2l0.9-0.2l0.9-0.3l0.9-0.3l0.9-0.3l0.9-0.3l0.9-0.3l0.9-0.3l0.8-0.3l0.8-0.3l0.8-0.4l0.8-0.4l0.8-0.4l0.8-0.4l0.8-0.4
					l0.8-0.4l0.8-0.4l0.8-0.4l0.8-0.5l0.8-0.5l0.8-0.5l0.8-0.5l0.8-0.5l0.7-0.5l0.7-0.5l0.7-0.5l0.7-0.5l0.7-0.5l0.7-0.6l0.7-0.6
					l0.7-0.6l0.7-0.6l0.7-0.6l0.7-0.6l0.7-0.6l0.6-0.6l0.6-0.6l0.6-0.6l0.6-0.7l0.6-0.7l0.6-0.7l3.5-4.1l-1.3,4.7l-0.2,0.7l0,0
					L331,69.4z M251.5,13.7l0.2,0.7l0.2,0.7l0.2,0.7l0.2,0.7l0.2,0.7l0.2,0.7l0.2,0.7l0.1,0.7l0.1,0.7l0.1,0.7l0.1,0.7l0.1,0.7
					l0.1,0.7l0.1,0.7l0.1,0.7l0.1,0.7l0.1,0.7l0.1,0.7l0.1,0.7l0.1,0.7l0.1,0.7l0.1,0.7v0.7v0.7v0.7v0.7v0.7v0.7V34v0.7v0.7v0.7v0.7
					v0.7V38v0.4l-0.1,0.5l-0.1,0.5l-0.1,0.5l-0.1,0.5l-0.1,0.5l-0.1,0.5l-0.1,0.5l-0.1,0.5l-0.1,0.5l-0.1,0.5l-0.1,0.5l-0.1,0.5
					l-0.1,0.5l-0.1,0.5l-0.1,0.5l-0.1,0.5l-0.1,0.5l-0.1,0.5l-0.1,0.5l-0.1,0.5l-0.2,0.5l-0.1,0.5l-0.2,0.5l-0.2,0.5l-0.2,0.5
					l-0.2,0.5l-0.2,0.5l-0.2,0.5l-0.2,0.5l-0.2,0.5l-0.2,0.5l-0.2,0.5l-0.2,0.5l-0.2,0.5l-0.2,0.5V56l-0.3,0.6l-0.3,0.6l-0.3,0.6
					l-0.3,0.6L248,59l-0.3,0.6l-0.3,0.6l-0.4,0.6l-0.4,0.6l-0.4,0.6l-0.4,0.6l-0.4,0.6l-0.4,0.5l-0.4,0.5l-0.4,0.5l-0.4,0.5
					l-0.4,0.5l-0.4,0.5l-0.4,0.5l-0.4,0.5l-0.5,0.5l-0.5,0.5l-0.5,0.5l-0.5,0.5l-0.5,0.5l-0.5,0.5l-0.5,0.4l-0.5,0.4l-0.5,0.4
					l-0.5,0.4l-0.5,0.4l-0.5,0.4l-0.5,0.4l-0.6,0.4l-0.6,0.4l-0.6,0.4l-0.6,0.4l-0.6,0.3l-0.6,0.3l-0.6,0.3l-2,1.1l-16.3,10.3
					l-1,0.7l-0.8,0.6l-0.8,0.6l-0.8,0.6L209,90l-0.7,0.6l-0.7,0.6l-0.7,0.6l-0.7,0.6l-0.7,0.7l-0.7,0.7l-0.7,0.7l-0.7,0.7l-0.6,0.7
					l-0.6,0.7l-0.6,0.7L201,98l-0.6,0.7l-0.6,0.8l-0.6,0.8l-0.6,0.8l-0.6,0.8l-0.5,0.8l-0.5,0.8l-0.5,0.8l-0.5,0.8l-0.5,0.8
					l-0.5,0.8l-0.5,0.8l-0.5,0.8l-0.4,0.9l-0.4,0.9l-0.4,0.9l-0.4,0.9l-0.4,0.9l-0.4,0.9l-0.4,0.9l-0.3,0.9l-0.3,0.9l-0.3,0.9
					l-0.3,0.9l-3.5,11.4l-3-14.5l-0.1-0.5l-0.1-0.5l-0.1-0.5l-0.1-0.5l-0.1-0.5l-0.1-0.5l-0.1-0.5l-0.1-0.5l-0.1-0.5l-0.1-0.5
					l-0.1-0.5v-0.5l-0.1-0.6V108v-0.5v-0.6v-0.5v-0.5v-0.6v-0.5v-0.6v-0.5v-0.6v-0.5V102v-0.5v-0.6v-0.5v-0.6v-0.5v-0.6v-0.5v-0.5
					v-0.6l0.1-0.5V96l0.1-0.5l0.1-0.4l0.1-0.5l0.1-0.5l0.1-0.5l0.1-0.5l0.1-0.5l0.1-0.5l0.1-0.5l0.1-0.5l0.1-0.5l0.1-0.5l0.1-0.5
					l0.1-0.5l0.1-0.5l0.1-0.5l0.1-0.5l0.1-0.5l0.2-0.5l0.2-0.5l0.2-0.4l0.2-0.5l0.2-0.4l0.2-0.4l0.2-0.4l0.2-0.4l0.2-0.4l0.2-0.4
					l0.2-0.4l0.2-0.4l0.2-0.4l0.2-0.4l0.2-0.4l0.2-0.4l0.2-0.4l0.2-0.4l0.2-0.4l0.2-0.4l0.3-0.6l0.3-0.6l0.3-0.6l0.3-0.6l0.4-0.6
					l0.4-0.5l0.4-0.5l0.4-0.5l0.4-0.5l0.4-0.5l0.4-0.5l0.4-0.5l0.4-0.5l0.4-0.5l0.4-0.5l0.4-0.5l0.4-0.5l0.4-0.5l0.5-0.5l0.5-0.5
					l0.5-0.5l0.5-0.4l0.5-0.4l0.5-0.4l0.5-0.4l0.5-0.4l0.5-0.4L200,65l0.5-0.4l0.5-0.4l0.5-0.4l0.5-0.4l0.5-0.4l0.5-0.4l0.6-0.3
					l0.6-0.3l0.6-0.3l0.6-0.3l0.6-0.3l0.6-0.3l7.2-3.7l12.5-8.5l0.1-0.1l0.1-0.1l0.1-0.1l0.1-0.1l0.1-0.1l0.1-0.1l0.1-0.1l0.1-0.1
					l0.1-0.1l0.1-0.1l0.1-0.1l0.1-0.1l0.1-0.1l0.1-0.1l0.1-0.1l0.1-0.1l0.1-0.1l0.1-0.1l0.1-0.1l0.1-0.1l0.1-0.1l0.1-0.1l0.1-0.1
					l0.1-0.1l0.1-0.1l0.1-0.1l0.1-0.1l0.1-0.1l0.1-0.1l0.1-0.1l0.1-0.1l0.1-0.1l0.1-0.1l0.1-0.1l0.1-0.1l0.1-0.1l0.1-0.1l0.1-0.1
					l0.1-0.1l0.1-0.1l0.1-0.1l0.6-0.6l0.6-0.6l0.6-0.6l0.6-0.6l0.6-0.7l0.6-0.7l0.6-0.7l0.6-0.7l0.5-0.7l0.5-0.7l0.5-0.7l0.5-0.7
					l0.5-0.7l0.5-0.7l0.5-0.7l0.5-0.7l0.5-0.8l0.4-0.8l0.4-0.8l0.4-0.8l0.4-0.8l0.4-0.8l0.4-0.8l0.4-0.8l0.3-0.8l0.3-0.8l0.3-0.8
					l0.3-0.8l0.3-0.8l0.3-0.8l0.3-0.8l0.3-0.8l0.2-0.9l0.2-0.9l0.2-0.9l0.2-0.9L248,15l0.2-0.9l0.2-0.9l0.1-0.9l0.8-5.5l1.8,5.5
					l0.2,0.7l0,0L251.5,13.7z M42.3,124.1l-0.7-0.1h-0.4h-0.3l-0.5-0.1l-0.5-0.1l-0.5-0.1l-0.5-0.1l4.8,0.7l-0.7-0.1l0,0L42.3,124.1
					z M140.6,111.1l0.1,0.1v0.2l0.1,0.5l0.1,0.5l0.1,0.5l-1.1-3.3l0.2,0.5l0.2,0.5l0,0L140.6,111.1z M230.3,106.3l-0.1,0.1l-0.1,0.1
					l-0.3,0.4l-0.3,0.4l-0.3,0.4l2.3-2.6l-0.4,0.4l-0.4,0.4l0,0L230.3,106.3z M183,94.2L183,94.2L183,94.2l-0.1,0.6l-0.1,0.5
					l-0.1,0.5l0.5-3.2l-0.1,0.5l-0.1,0.5l0,0L183,94.2z M319.4,92.6l0.4-0.6l0.2-0.3l0.2-0.2l0.3-0.4l0.3-0.4l0.3-0.4l0.3-0.4
					l-2.9,3.9l0.4-0.6l0,0L319.4,92.6z M74.1,71.5l1.1,0.5l1,0.6l0.9,0.7l0.8,0.8l0.7,0.9l0.6,1l0.5,1.1l0.4,1.1l0.3,1.2l0.1,1.2
					v1.3l-0.1,1.7l-0.1,1.1l-0.2,1.1l-0.3,1l-0.4,1l-0.5,0.9l-0.6,0.8l-0.7,0.8L76.8,91L76,91.8l-0.9,0.5l-0.9,0.5l-1,0.4l-1,0.3
					l-1.1,0.2H70l-1.2-0.1l-1.2-0.2l-1.1-0.3l-1.1-0.4l-1-0.5l-1-0.6l-0.9-0.7l-0.8-0.8L60.9,89l-0.6-1l-0.5-1l-0.5-1L59,84.8
					l-0.2-1.2l-0.1-1.2v-1.6v-1l0.2-1l0.2-1l0.3-0.9l0.4-0.9l0.5-0.8l0.6-0.8l0.6-0.7l0.7-0.6l0.8-0.6l0.8-0.5l0.9-0.4l0.9-0.3
					l1-0.2l1-0.1l1.5-0.1h1.3l1.2,0.1l1.2,0.3l0,0L74.1,71.5z M298.3,57.1l1.1,0.5l1,0.6l0.9,0.7l0.8,0.8l0.7,0.9l0.6,1l0.5,1.1
					l0.4,1.1l0.3,1.2l0.1,1.2v1.3l-0.1,1.7l-0.1,1.1l-0.2,1.1l-0.3,1l-0.4,1l-0.5,0.9l-0.6,0.8l-0.7,0.8l-0.8,0.7l-0.8,0.6l-0.9,0.6
					l-0.9,0.5l-1,0.4l-1,0.3l-1.1,0.2h-1.1l-1.2-0.1l-1.2-0.2l-1.1-0.3l-1.1-0.4l-1-0.5l-1-0.6l-0.9-0.7l-0.8-0.8l-0.7-0.9l-0.6-1
					l-0.5-1l-0.4-1.1l-0.3-1.1l-0.2-1.2l-0.1-1.2v-1.6v-1l0.1-1l0.2-1l0.3-0.9l0.4-0.9l0.5-0.8l0.6-0.8l0.6-0.7l0.7-0.6l0.8-0.6
					l0.8-0.5l0.9-0.4l0.9-0.3l1-0.2l1-0.1l1.5-0.1h1.3l1.2,0.1l1.2,0.3l0,0L298.3,57.1z M94.5,57.2l-0.6-0.4l-0.3-0.2l-0.2-0.2
					L93,56l-0.4-0.3l-0.4-0.3L91.8,55l3.8,3.1L95,57.6l0,0L94.5,57.2z M142.7,23.3l1.1,0.5l1,0.6l0.9,0.7l0.8,0.8l0.7,0.9l0.6,1
					l0.5,1.1l0.4,1.1l0.3,1.2l0.1,1.2v1.3l-0.1,1.7l-0.1,1.1l-0.2,1.1l-0.3,1l-0.4,1l-0.5,0.9l-0.6,0.8l-0.7,0.8l-0.8,0.7l-0.8,0.6
					l-0.9,0.5l-0.9,0.5l-1,0.4l-1,0.3l-1.1,0.2h-1.1l-1.2-0.1l-1.2-0.2l-1.1-0.3l-1.1-0.4l-1-0.5l-1-0.6l-0.9-0.7l-0.8-0.8l-0.7-0.9
					l-0.6-1l-0.5-1l-0.4-1.1l-0.3-1.1l-0.2-1.2l-0.1-1.2v-1.6l0.1-1l0.1-1l0.2-1l0.3-0.9l0.4-0.9l0.5-0.8l0.6-0.8l0.6-0.7l0.7-0.6
					l0.8-0.6l0.8-0.5l0.9-0.4l0.9-0.3l1-0.2l1-0.1l1.5-0.1h1.3l1.2,0.1l1.2,0.3l0,0L142.7,23.3z M254.5,39.1v-0.7v-0.2v-0.1v-0.5
					v-0.5v-0.5v-0.5l-0.3,4.5v-0.7l0,0L254.5,39.1z M223.1,18.4l1.1,0.5l1,0.6l0.9,0.7l0.8,0.8l0.7,0.9l0.6,1l0.5,1.1l0.4,1.1
					l0.3,1.2l0.1,1.2v1.3l-0.1,1.7l-0.1,1.1l-0.2,1.1l-0.3,1l-0.4,1l-0.5,0.9l-0.6,0.8l-0.7,0.8l-0.8,0.7l-0.8,0.6l-0.9,0.5
					l-0.9,0.5l-1,0.4l-1,0.3l-1.1,0.2H219l-1.2-0.1l-1.2-0.2l-1.1-0.3l-1.1-0.4l-1-0.5l-1-0.6l-0.9-0.7l-0.8-0.8l-0.7-0.9l-0.6-1
					l-0.5-1l-0.4-1.1l-0.3-1.1l-0.2-1.2l-0.1-1.2v-1.6v-1l0.1-1l0.2-1l0.3-0.9l0.4-0.9l0.5-0.8l0.6-0.8l0.6-0.7l0.7-0.6l0.8-0.6
					l0.8-0.5l0.9-0.4l0.9-0.3l1-0.2l1-0.1l1.5-0.1h1.3l1.2,0.1l1.2,0.3l0,0L223.1,18.4z M175,27.8l-0.3-0.7l-0.2-0.4l-0.1-0.2
					l-0.2-0.5l-0.2-0.5l-0.2-0.5l-0.2-0.5l1.8,4.5l-0.3-0.7l0,0L175,27.8z"/>
			</g>
		</g>
	</g>
</g>
</svg>
